<svg xmlns="http://www.w3.org/2000/svg" viewBox="0 0 1435.17 393.85"><defs><style>.cls-1{isolation:isolate;}.cls-2{mix-blend-mode:screen;}.cls-3{fill:#9110fa;}</style></defs><g class="cls-1"><g id="Layer_2" data-name="Layer 2"><g id="BG"><g class="cls-2"><path class="cls-3" d="M1435.17,196.93c-59.79,2.1-119.59,9.34-179.39,18.34-59.8,12.06-119.6,13.73-179.4,44.21-119.6,61.9-239.19,193-358.79,104.73-29.9-24-59.8-55.26-89.7-75.92-29.9-21.63-59.8-23.61-89.7-29-59.8-10.65-119.6-20.45-179.4-28.76C239.2,213.33,119.59,201.05,0,196.93c119.59-4.13,239.2-16.4,358.79-33.57,59.8-8.31,119.6-18.12,179.4-28.76,29.9-5.42,59.8-7.41,89.7-29,29.9-20.66,59.8-51.88,89.7-75.91,119.6-88.29,239.19,42.83,358.79,104.72,59.8,30.48,119.6,32.16,179.4,44.21C1315.58,187.59,1375.38,194.82,1435.17,196.93Z"/></g></g></g></g></svg>