<svg xmlns="http://www.w3.org/2000/svg" xmlns:xlink="http://www.w3.org/1999/xlink" viewBox="0 0 1435.17 446.91"><defs><style>.cls-1{fill:url(#linear-gradient);}</style><linearGradient id="linear-gradient" x1="3045.02" y1="1463.93" x2="2338.34" y2="621.74" gradientTransform="translate(-325.25 2915.14) rotate(-90)" gradientUnits="userSpaceOnUse"><stop offset="0.01" stop-color="#00ffc2"/><stop offset="0.1" stop-color="#05f7c4"/><stop offset="0.23" stop-color="#11e0c9"/><stop offset="0.4" stop-color="#26bbd2"/><stop offset="0.6" stop-color="#4287de"/><stop offset="0.81" stop-color="#6645ed"/><stop offset="1" stop-color="#8906fc"/></linearGradient></defs><g id="Layer_2" data-name="Layer 2"><g id="BG"><path class="cls-1" d="M1435.17,223.46C1375.38,233.84,1315.58,270,1255.78,324c-59.8,54.1-119.6,113.94-179.4,120.46-29.9,5.54-59.8,3.49-89.7-23.3-29.9-23.93-59.8-69.77-89.7-107.14-29.9-38-59.79-64-89.7-68.63-29.89-3.87-59.8,1.31-89.69,17-59.8,28.51-119.6,100-179.4,128.73-29.9,14.84-59.8,21.61-89.7,17.83s-59.8-23.66-89.7-52.64c-29.9-28.76-59.8-64.14-89.7-86.26-29.89-23.28-59.8-30.58-89.69-32-59.81-7.12-119.61-13-179.4-14.47C59.79,222,119.59,216.11,179.4,209c29.89-1.45,59.8-8.74,89.69-32,29.9-22.11,59.8-57.49,89.7-86.25,29.9-29,59.8-48.92,89.7-52.65s59.8,3,89.7,17.83c59.8,28.7,119.6,100.23,179.4,128.73,29.89,15.64,59.8,20.82,89.69,16.95,29.91-4.65,59.8-30.62,89.7-68.63,29.9-37.37,59.8-83.21,89.7-107.13,29.9-26.8,59.8-28.85,89.7-23.3C1136.18,9,1196,68.85,1255.78,123,1315.58,176.88,1375.38,213.07,1435.17,223.46Z"/></g></g></svg>