<svg xmlns="http://www.w3.org/2000/svg" width="85.302" height="85.303" viewBox="0 0 85.302 85.303">
  <g id="Group_235" data-name="Group 235" transform="translate(-787.669 -10084.334)">
    <g id="Ellipse_178" data-name="Ellipse 178" transform="translate(787.669 10084.334)" fill="#fff" stroke="#0ceab5" stroke-miterlimit="10" stroke-width="1">
      <circle cx="42.651" cy="42.651" r="42.651" stroke="none"/>
      <circle cx="42.651" cy="42.651" r="42.151" fill="none"/>
    </g>
    <g id="Group_194" data-name="Group 194" transform="translate(-136.898 5979.775)">
      <path id="Path_691" data-name="Path 691" d="M945.188,4147.21c0-13.67,10.153-24.153,24.153-24.153a23.164,23.164,0,0,1,19.907,10.749l-9.157,5.308c-2.057-3.583-6.038-5.706-10.75-5.706-8.227,0-13.536,5.507-13.536,13.8s5.309,13.8,13.536,13.8c4.712,0,8.759-2.123,10.75-5.707l9.157,5.309a23,23,0,0,1-19.907,10.75C955.341,4171.363,945.188,4160.878,945.188,4147.21Z" fill="#8906fc"/>
    </g>
  </g>
</svg>
