<svg xmlns="http://www.w3.org/2000/svg" width="78.721" height="78.721" viewBox="0 0 78.721 78.721">
  <g id="Group_179" data-name="Group 179" transform="translate(-2332.85 -1993.463)">
    <path id="Path_731" data-name="Path 731" d="M2371.543,2034.679l-.066-.47a6.421,6.421,0,0,1,.414-2.836l.463.4c1.024.846.165,1.949.4,2.9-.132.008-.263.012-.4.013Z" fill="#a2b1ce"/>
    <path id="Path_732" data-name="Path 732" d="M2372.939,2032.274q-.321.8-.643,1.6c-.288-.563-1.844-1.124,0-1.691Z" fill="#e8ecf3"/>
    <path id="Path_733" data-name="Path 733" d="M2371.585,2031.363l.812.009q.2.624.4,1.247c-.442.292-.019.554.029.829l-.429.432a.809.809,0,0,0-.416.818C2371.153,2033.668,2371.731,2032.473,2371.585,2031.363Z" fill="#a7b5d1"/>
    <g id="Group_239" data-name="Group 239">
      <circle id="Ellipse_170" data-name="Ellipse 170" cx="32.719" cy="32.719" r="32.719" transform="translate(2332.85 2057.149) rotate(-76.717)" fill="#3c5a99"/>
      <path id="Path_734" data-name="Path 734" d="M2366.788,2033.194v20.039a.522.522,0,0,0,.522.522h7.442a.522.522,0,0,0,.522-.522v-20.366h5.4a.521.521,0,0,0,.52-.478l.519-6.136a.522.522,0,0,0-.52-.566h-5.914v-4.354a1.847,1.847,0,0,1,1.847-1.847h4.158a.522.522,0,0,0,.522-.522v-6.136a.522.522,0,0,0-.522-.522h-7.025a7.466,7.466,0,0,0-7.466,7.465v5.916h-3.721a.522.522,0,0,0-.522.522v6.136a.522.522,0,0,0,.522.522h3.721Z" fill="#fff" fill-rule="evenodd"/>
    </g>
  </g>
</svg>
