<?xml version="1.0" encoding="UTF-8" standalone="no"?>
<svg
   xmlns:dc="http://purl.org/dc/elements/1.1/"
   xmlns:cc="http://creativecommons.org/ns#"
   xmlns:rdf="http://www.w3.org/1999/02/22-rdf-syntax-ns#"
   xmlns:svg="http://www.w3.org/2000/svg"
   xmlns="http://www.w3.org/2000/svg"
   xmlns:sodipodi="http://sodipodi.sourceforge.net/DTD/sodipodi-0.dtd"
   xmlns:inkscape="http://www.inkscape.org/namespaces/inkscape"
   width="78.721"
   height="78.721"
   viewBox="0 0 78.721 78.721"
   version="1.1"
   id="svg840"
   sodipodi:docname="Facebook_icon.svg"
   inkscape:version="1.0.1 (c497b03c, 2020-09-10)">
  <metadata
     id="metadata846">
    <rdf:RDF>
      <cc:Work
         rdf:about="">
        <dc:format>image/svg+xml</dc:format>
        <dc:type
           rdf:resource="http://purl.org/dc/dcmitype/StillImage" />
      </cc:Work>
    </rdf:RDF>
  </metadata>
  <defs
     id="defs844" />
  <sodipodi:namedview
     pagecolor="#ffffff"
     bordercolor="#666666"
     borderopacity="1"
     objecttolerance="10"
     gridtolerance="10"
     guidetolerance="10"
     inkscape:pageopacity="0"
     inkscape:pageshadow="2"
     inkscape:window-width="1920"
     inkscape:window-height="1035"
     id="namedview842"
     showgrid="false"
     inkscape:zoom="10.035442"
     inkscape:cx="39.3605"
     inkscape:cy="39.3605"
     inkscape:window-x="0"
     inkscape:window-y="23"
     inkscape:window-maximized="1"
     inkscape:current-layer="Group_179" />
  <g
     id="Group_179"
     data-name="Group 179"
     transform="translate(-2332.85 -1993.463)">
    <path
       id="Path_731"
       data-name="Path 731"
       d="M2371.543,2034.679l-.066-.47a6.421,6.421,0,0,1,.414-2.836l.463.4c1.024.846.165,1.949.4,2.9-.132.008-.263.012-.4.013Z"
       fill="#a2b1ce" />
    <path
       id="Path_732"
       data-name="Path 732"
       d="M2372.939,2032.274q-.321.8-.643,1.6c-.288-.563-1.844-1.124,0-1.691Z"
       fill="#e8ecf3" />
    <path
       id="Path_733"
       data-name="Path 733"
       d="M2371.585,2031.363l.812.009q.2.624.4,1.247c-.442.292-.019.554.029.829l-.429.432a.809.809,0,0,0-.416.818C2371.153,2033.668,2371.731,2032.473,2371.585,2031.363Z"
       fill="#a7b5d1" />
    <g
       id="Group_239"
       data-name="Group 239"
       transform="matrix(1.182732,0,0,1.1949142,-433.47901,-396.22601)">
      <circle
         id="Ellipse_170"
         data-name="Ellipse 170"
         cx="32.719002"
         cy="32.719002"
         r="32.719002"
         transform="rotate(-76.717,2466.0958,-445.27933)"
         fill="#3c5a99" />
      <path
         id="Path_734"
         data-name="Path 734"
         d="m 2366.788,2033.194 v 20.039 a 0.522,0.522 0 0 0 0.522,0.522 h 7.442 a 0.522,0.522 0 0 0 0.522,-0.522 v -20.366 h 5.4 a 0.521,0.521 0 0 0 0.52,-0.478 l 0.519,-6.136 a 0.522,0.522 0 0 0 -0.52,-0.566 h -5.914 v -4.354 a 1.847,1.847 0 0 1 1.847,-1.847 h 4.158 a 0.522,0.522 0 0 0 0.522,-0.522 v -6.136 a 0.522,0.522 0 0 0 -0.522,-0.522 h -7.025 a 7.466,7.466 0 0 0 -7.466,7.465 v 5.916 h -3.721 a 0.522,0.522 0 0 0 -0.522,0.522 v 6.136 a 0.522,0.522 0 0 0 0.522,0.522 h 3.721 z"
         fill="#ffffff"
         fill-rule="evenodd" />
    </g>
  </g>
</svg>
