<svg xmlns="http://www.w3.org/2000/svg" width="65.437" height="65.437" viewBox="0 0 65.437 65.437">
  <g id="Group_240" data-name="Group 240" transform="translate(-2437.06 -2000.104)">
    <circle id="Ellipse_171" data-name="Ellipse 171" cx="32.719" cy="32.719" r="32.719" transform="translate(2437.06 2000.104)" fill="#00b900"/>
    <g id="TYPE_A" data-name="TYPE A">
      <g id="Group_181" data-name="Group 181">
        <path id="Path_735" data-name="Path 735" d="M2491.542,2030.859c0-9.739-9.763-17.662-21.764-17.662s-21.763,7.923-21.763,17.662c0,8.73,7.743,16.041,18.2,17.424.709.153,1.673.467,1.917,1.073a4.467,4.467,0,0,1,.071,1.968s-.255,1.536-.311,1.863c-.095.55-.437,2.152,1.885,1.173s12.534-7.38,17.1-12.635h0c3.154-3.459,4.665-6.969,4.665-10.866" fill="#fff"/>
        <g id="Group_180" data-name="Group 180">
          <path id="Path_736" data-name="Path 736" d="M2465.357,2026.153h-1.527a.423.423,0,0,0-.424.423v9.483a.423.423,0,0,0,.424.422h1.527a.423.423,0,0,0,.423-.422v-9.483a.423.423,0,0,0-.423-.423" fill="#00b900"/>
          <path id="Path_737" data-name="Path 737" d="M2475.864,2026.153h-1.527a.423.423,0,0,0-.424.423v5.634l-4.345-5.869c-.01-.015-.022-.029-.033-.043l0,0-.025-.026-.008-.007-.023-.019-.011-.009-.022-.015-.013-.007-.022-.013-.014-.007-.024-.01-.014-.005-.025-.008-.015,0-.024-.005-.018,0-.022,0-.022,0h-1.541a.424.424,0,0,0-.424.423v9.483a.423.423,0,0,0,.424.422h1.526a.423.423,0,0,0,.424-.422v-5.632l4.351,5.876a.41.41,0,0,0,.108.1l0,0,.026.016.012.006.02.01.021.009.013,0,.029.01h.006a.43.43,0,0,0,.108.014h1.527a.423.423,0,0,0,.424-.422v-9.483a.424.424,0,0,0-.424-.423" fill="#00b900"/>
          <path id="Path_738" data-name="Path 738" d="M2461.677,2034.107h-4.148v-7.531a.424.424,0,0,0-.424-.424h-1.526a.424.424,0,0,0-.424.424v9.482h0a.421.421,0,0,0,.118.293l.006.007.006.006a.422.422,0,0,0,.293.118h6.1a.424.424,0,0,0,.423-.424v-1.527a.423.423,0,0,0-.423-.424" fill="#00b900"/>
          <path id="Path_739" data-name="Path 739" d="M2484.294,2028.527a.423.423,0,0,0,.423-.424v-1.526a.423.423,0,0,0-.423-.424h-6.1a.423.423,0,0,0-.294.119l0,.005-.007.007a.424.424,0,0,0-.117.292h0v9.481h0a.42.42,0,0,0,.118.292l.006.007.006.005a.422.422,0,0,0,.293.119h6.1a.423.423,0,0,0,.423-.424v-1.527a.423.423,0,0,0-.423-.424h-4.148v-1.6h4.148a.423.423,0,0,0,.423-.424v-1.526a.423.423,0,0,0-.423-.424h-4.148v-1.6Z" fill="#00b900"/>
        </g>
      </g>
    </g>
  </g>
</svg>
