<svg xmlns="http://www.w3.org/2000/svg" width="85.302" height="85.303" viewBox="0 0 85.302 85.303">
  <g id="Group_237" data-name="Group 237" transform="translate(-787.973 -11329.569)">
    <g id="Path_746" data-name="Path 746" transform="translate(787.973 11329.569)" fill="#fff">
      <path d="M 42.65121078491211 84.80242156982422 C 36.96060943603516 84.80242156982422 31.44050025939941 83.68801879882812 26.24421119689941 81.49018096923828 C 21.22493362426758 79.36720275878906 16.71705436706543 76.327880859375 12.84579944610596 72.45661926269531 C 8.974544525146484 68.58536529541016 5.935221672058105 64.07749176025391 3.812244176864624 59.05821228027344 C 1.614399671554565 53.86192321777344 0.4999996721744537 48.34181213378906 0.4999996721744537 42.65121078491211 C 0.4999996721744537 36.96060943603516 1.614399671554565 31.44050025939941 3.812244176864624 26.24421119689941 C 5.935221672058105 21.22493362426758 8.974544525146484 16.71705436706543 12.84579944610596 12.84579944610596 C 16.71705436706543 8.974544525146484 21.22493362426758 5.935221672058105 26.24421119689941 3.812244176864624 C 31.44050025939941 1.614399671554565 36.96060943603516 0.4999996721744537 42.65121078491211 0.4999996721744537 C 48.34181213378906 0.4999996721744537 53.86192321777344 1.614399671554565 59.05821228027344 3.812244176864624 C 64.07749176025391 5.935221672058105 68.58536529541016 8.974544525146484 72.45661926269531 12.84579944610596 C 76.327880859375 16.71705436706543 79.36720275878906 21.22493362426758 81.49018096923828 26.24421119689941 C 83.68801879882812 31.44050025939941 84.80242156982422 36.96060943603516 84.80242156982422 42.65121078491211 C 84.80242156982422 48.34181213378906 83.68801879882812 53.86192321777344 81.49018096923828 59.05821228027344 C 79.36720275878906 64.07749176025391 76.327880859375 68.58536529541016 72.45661926269531 72.45661926269531 C 68.58536529541016 76.327880859375 64.07749176025391 79.36720275878906 59.05821228027344 81.49018096923828 C 53.86192321777344 83.68801879882812 48.34181213378906 84.80242156982422 42.65121078491211 84.80242156982422 Z" stroke="none"/>
      <path d="M 42.65121078491211 1 C 37.02789306640625 1 31.57331848144531 2.101104736328125 26.43898773193359 4.272750854492188 C 21.47930526733398 6.370513916015625 17.02485656738281 9.373855590820312 13.19934844970703 13.19934844970703 C 9.373855590820312 17.02485656738281 6.370513916015625 21.47930526733398 4.272750854492188 26.43898773193359 C 2.101104736328125 31.57331848144531 1 37.02789306640625 1 42.65121078491211 C 1 48.27452850341797 2.101104736328125 53.72910308837891 4.272750854492188 58.86343383789062 C 6.370513916015625 63.82311630249023 9.373855590820312 68.27756500244141 13.19934844970703 72.10307312011719 C 17.02485656738281 75.92856597900391 21.47930526733398 78.93190765380859 26.43898773193359 81.02967071533203 C 31.57331848144531 83.20131683349609 37.02789306640625 84.30242156982422 42.65121078491211 84.30242156982422 C 48.27452850341797 84.30242156982422 53.72910308837891 83.20131683349609 58.86343383789062 81.02967071533203 C 63.82311630249023 78.93190765380859 68.27756500244141 75.92856597900391 72.10307312011719 72.10307312011719 C 75.92856597900391 68.27756500244141 78.93190765380859 63.82311630249023 81.02967071533203 58.86343383789062 C 83.20131683349609 53.72910308837891 84.30242156982422 48.27452850341797 84.30242156982422 42.65121078491211 C 84.30242156982422 37.02789306640625 83.20131683349609 31.57331848144531 81.02967071533203 26.43898773193359 C 78.93190765380859 21.47930526733398 75.92856597900391 17.02485656738281 72.10307312011719 13.19934844970703 C 68.27756500244141 9.373855590820312 63.82311630249023 6.370513916015625 58.86343383789062 4.272750854492188 C 53.72910308837891 2.101104736328125 48.27452850341797 1 42.65121078491211 1 M 42.65121078491211 0 C 66.20682525634766 0 85.30242156982422 19.09559631347656 85.30242156982422 42.65121078491211 C 85.30242156982422 66.20682525634766 66.20682525634766 85.30242156982422 42.65121078491211 85.30242156982422 C 19.09559631347656 85.30242156982422 0 66.20682525634766 0 42.65121078491211 C 0 19.09559631347656 19.09559631347656 0 42.65121078491211 0 Z" stroke="none" fill="#0ceab5"/>
    </g>
    <g id="Group_196" data-name="Group 196" transform="translate(473.102 7619.775)">
      <g id="Group_155" data-name="Group 155">
        <g id="Group_153" data-name="Group 153">
          <rect id="Rectangle_77" data-name="Rectangle 77" width="8.991" height="7.178" transform="translate(374.147 3748.667)" fill="#8906fc"/>
          <rect id="Rectangle_78" data-name="Rectangle 78" width="10.407" height="7.272" transform="translate(374.147 3735.917)" fill="#8906fc"/>
          <rect id="Rectangle_79" data-name="Rectangle 79" width="10.407" height="7.272" transform="translate(374.147 3761.701)" fill="#8906fc"/>
        </g>
        <g id="Group_154" data-name="Group 154">
          <path id="Path_694" data-name="Path 694" d="M350.114,3753.318l-10.63-17.4h-8.951v1.73l8.951,14.668v-.005l2.493,4.09.378.62h0l7.257,11.906h1.007l4.508-7.4-5.012-8.213Z" fill="#8906fc"/>
          <path id="Path_695" data-name="Path 695" d="M360.744,3735.917l-8.658,14.172,5.009,8.208,3.649-5.987v16.616H369.7v-33.01Z" fill="#8906fc"/>
          <path id="Path_696" data-name="Path 696" d="M330.533,3744.1v24.822h8.951v-10.155h0Z" fill="#8906fc"/>
          <path id="Path_697" data-name="Path 697" d="M330.533,3744.1l-.044,24.79h9.04l-.045-10.122Z" fill="#8906fc"/>
        </g>
      </g>
      <rect id="Rectangle_80" data-name="Rectangle 80" width="54.252" height="1.635" transform="translate(330.488 3773.557)" fill="#8906fc"/>
      <rect id="Rectangle_81" data-name="Rectangle 81" width="54.252" height="1.635" transform="translate(330.488 3729.699)" fill="#8906fc"/>
    </g>
  </g>
</svg>
