<svg xmlns="http://www.w3.org/2000/svg" xmlns:xlink="http://www.w3.org/1999/xlink" width="413.8" height="114.281" viewBox="0 0 413.8 114.281">
  <defs>
    <linearGradient id="linear-gradient" y1="0.5" x2="1" y2="0.5" gradientUnits="objectBoundingBox">
      <stop offset="0.106" stop-color="#8906fc"/>
      <stop offset="0.217" stop-color="#477ce0"/>
      <stop offset="0.31" stop-color="#14daca"/>
      <stop offset="0.352" stop-color="#00ffc2"/>
      <stop offset="0.382" stop-color="#03f8c3"/>
      <stop offset="0.422" stop-color="#0de7c7"/>
      <stop offset="0.469" stop-color="#1ccace"/>
      <stop offset="0.521" stop-color="#33a2d7"/>
      <stop offset="0.576" stop-color="#4f6ee3"/>
      <stop offset="0.634" stop-color="#7130f2"/>
      <stop offset="0.67" stop-color="#8906fc"/>
      <stop offset="0.691" stop-color="#732cf3"/>
      <stop offset="0.718" stop-color="#5a59e8"/>
      <stop offset="0.748" stop-color="#4482df"/>
      <stop offset="0.779" stop-color="#31a4d7"/>
      <stop offset="0.811" stop-color="#22bfd1"/>
      <stop offset="0.847" stop-color="#16d5cc"/>
      <stop offset="0.886" stop-color="#0ee4c8"/>
      <stop offset="0.932" stop-color="#09edc6"/>
      <stop offset="1" stop-color="#08f0c6"/>
    </linearGradient>
  </defs>
  <g id="Group_241" data-name="Group 241" transform="translate(-2165.21 -1698.629)">
    <g id="Group_186" data-name="Group 186" transform="translate(-16.091 -62.833)">
      <path id="Path_741" data-name="Path 741" d="M2398,1820.215c0-31.259,23.217-55.233,55.232-55.233,19.272,0,36.267,9.558,45.525,24.581L2477.81,1801.7c-4.7-8.194-13.807-13.05-24.583-13.05-18.813,0-30.953,12.594-30.953,31.563s12.14,31.56,30.953,31.56c10.776,0,20.032-4.855,24.583-13.05l20.942,12.139c-9.1,15.023-26.1,24.583-45.525,24.583C2421.213,1875.448,2398,1851.472,2398,1820.215Zm-152.027,2.823-33.521-54.869h-28.227v5.455l28.227,46.255v-.016l7.861,12.9,1.192,1.955h0l22.883,37.546h3.177l14.217-23.329-15.8-25.9Zm33.521-54.869-27.3,44.689,15.8,25.885,11.505-18.88v52.4h28.23V1768.169Zm-95.269,25.818v78.274h28.227v-32.022h0Zm0,0-.14,78.274h28.506l-.141-32.021Zm406.189,36.929v-22.59h-28.3v22.59Zm3.715-62.717h-32.011v22.887h32.011Zm-32.011,81.146v22.887h32.755v-22.887Zm-8.848,0h-.012v-18.428h.012v-22.59h-.012v-17.24h.012V1768.2h-27.3v104.033h27.3Zm-183.083,0h-.012v-18.428h.012v-22.59h-.012v-17.24h.012V1768.2h-27.3v104.033h27.3Z" transform="translate(0.233 0.295)" fill="url(#linear-gradient)"/>
      <path id="Path_742" data-name="Path 742" d="M2395.217,1816.694c0-31.259,23.218-55.232,55.232-55.232,19.271,0,36.267,9.557,45.525,24.58l-20.942,12.139c-4.7-8.194-13.807-13.05-24.583-13.05-18.813,0-30.953,12.594-30.953,31.563s12.141,31.56,30.953,31.56c10.776,0,20.031-4.854,24.583-13.05l20.942,12.139c-9.106,15.023-26.1,24.583-45.525,24.583C2418.434,1871.927,2395.217,1847.951,2395.217,1816.694Zm-152.027,2.823-33.521-54.869h-28.227v5.455l28.227,46.255v-.016l7.859,12.9,1.193,1.955h0l22.883,37.546h3.177L2259,1845.41l-15.8-25.9Zm33.521-54.869-27.3,44.689,15.8,25.885,11.505-18.88v52.4h28.23V1764.648Zm-95.268,25.818v78.275h28.227v-32.023h0Zm0,0-.14,78.275h28.506l-.141-32.022Zm406.189,36.929V1804.8h-28.3v22.59Zm3.716-62.717h-32.011v22.887h32.011Zm-32.011,81.146v22.888h32.755v-22.888Zm-8.848,0h-.012v-18.428h.012V1804.8h-.012v-17.24h.012v-22.887h-27.3v104.034h27.3Zm-183.083,0h-.012v-18.428h.012V1804.8h-.012v-17.24h.012v-22.887h-27.3v104.034h27.3Z" transform="translate(0 0)" fill="#fff"/>
    </g>
  </g>
</svg>
