<svg xmlns="http://www.w3.org/2000/svg" width="39.857" height="189.534" viewBox="0 0 39.857 189.534">
  <g id="Group_43" data-name="Group 43" transform="translate(-1235.283 -3736.997)">
    <circle id="Ellipse_62" data-name="Ellipse 62" cx="1.898" cy="1.898" r="1.898" transform="translate(1235.283 3736.997)" fill="#fff"/>
    <circle id="Ellipse_63" data-name="Ellipse 63" cx="1.898" cy="1.898" r="1.898" transform="translate(1235.283 3751.285)" fill="#fff"/>
    <circle id="Ellipse_64" data-name="Ellipse 64" cx="1.898" cy="1.898" r="1.898" transform="translate(1235.283 3765.572)" fill="#fff"/>
    <circle id="Ellipse_65" data-name="Ellipse 65" cx="1.898" cy="1.898" r="1.898" transform="translate(1235.283 3779.86)" fill="#fff"/>
    <circle id="Ellipse_66" data-name="Ellipse 66" cx="1.898" cy="1.898" r="1.898" transform="translate(1235.283 3794.147)" fill="#fff"/>
    <circle id="Ellipse_67" data-name="Ellipse 67" cx="1.898" cy="1.898" r="1.898" transform="translate(1235.283 3808.435)" fill="#fff"/>
    <circle id="Ellipse_68" data-name="Ellipse 68" cx="1.898" cy="1.898" r="1.898" transform="translate(1235.283 3822.722)" fill="#fff"/>
    <circle id="Ellipse_69" data-name="Ellipse 69" cx="1.898" cy="1.898" r="1.898" transform="translate(1235.283 3837.01)" fill="#fff"/>
    <circle id="Ellipse_70" data-name="Ellipse 70" cx="1.898" cy="1.898" r="1.898" transform="translate(1235.283 3851.297)" fill="#fff"/>
    <circle id="Ellipse_71" data-name="Ellipse 71" cx="1.898" cy="1.898" r="1.898" transform="translate(1235.283 3865.585)" fill="#fff"/>
    <circle id="Ellipse_72" data-name="Ellipse 72" cx="1.898" cy="1.898" r="1.898" transform="translate(1235.283 3879.872)" fill="#fff"/>
    <circle id="Ellipse_73" data-name="Ellipse 73" cx="1.898" cy="1.898" r="1.898" transform="translate(1235.283 3894.16)" fill="#fff"/>
    <circle id="Ellipse_74" data-name="Ellipse 74" cx="1.898" cy="1.898" r="1.898" transform="translate(1235.283 3908.448)" fill="#fff"/>
    <circle id="Ellipse_75" data-name="Ellipse 75" cx="1.898" cy="1.898" r="1.898" transform="translate(1235.283 3922.735)" fill="#fff"/>
    <circle id="Ellipse_76" data-name="Ellipse 76" cx="1.898" cy="1.898" r="1.898" transform="translate(1247.304 3736.997)" fill="#fff"/>
    <circle id="Ellipse_77" data-name="Ellipse 77" cx="1.898" cy="1.898" r="1.898" transform="translate(1247.304 3751.285)" fill="#fff"/>
    <circle id="Ellipse_78" data-name="Ellipse 78" cx="1.898" cy="1.898" r="1.898" transform="translate(1247.304 3765.572)" fill="#fff"/>
    <circle id="Ellipse_79" data-name="Ellipse 79" cx="1.898" cy="1.898" r="1.898" transform="translate(1247.304 3779.86)" fill="#fff"/>
    <circle id="Ellipse_80" data-name="Ellipse 80" cx="1.898" cy="1.898" r="1.898" transform="translate(1247.304 3794.147)" fill="#fff"/>
    <circle id="Ellipse_81" data-name="Ellipse 81" cx="1.898" cy="1.898" r="1.898" transform="translate(1247.304 3808.435)" fill="#fff"/>
    <circle id="Ellipse_82" data-name="Ellipse 82" cx="1.898" cy="1.898" r="1.898" transform="translate(1247.304 3822.722)" fill="#fff"/>
    <circle id="Ellipse_83" data-name="Ellipse 83" cx="1.898" cy="1.898" r="1.898" transform="translate(1247.304 3837.01)" fill="#fff"/>
    <circle id="Ellipse_84" data-name="Ellipse 84" cx="1.898" cy="1.898" r="1.898" transform="translate(1247.304 3851.297)" fill="#fff"/>
    <circle id="Ellipse_85" data-name="Ellipse 85" cx="1.898" cy="1.898" r="1.898" transform="translate(1247.304 3865.585)" fill="#fff"/>
    <circle id="Ellipse_86" data-name="Ellipse 86" cx="1.898" cy="1.898" r="1.898" transform="translate(1247.304 3879.872)" fill="#fff"/>
    <circle id="Ellipse_87" data-name="Ellipse 87" cx="1.898" cy="1.898" r="1.898" transform="translate(1247.304 3894.16)" fill="#fff"/>
    <circle id="Ellipse_88" data-name="Ellipse 88" cx="1.898" cy="1.898" r="1.898" transform="translate(1247.304 3908.448)" fill="#fff"/>
    <circle id="Ellipse_89" data-name="Ellipse 89" cx="1.898" cy="1.898" r="1.898" transform="translate(1247.304 3922.735)" fill="#fff"/>
    <circle id="Ellipse_90" data-name="Ellipse 90" cx="1.898" cy="1.898" r="1.898" transform="translate(1259.324 3736.997)" fill="#fff"/>
    <circle id="Ellipse_91" data-name="Ellipse 91" cx="1.898" cy="1.898" r="1.898" transform="translate(1259.324 3751.285)" fill="#fff"/>
    <circle id="Ellipse_92" data-name="Ellipse 92" cx="1.898" cy="1.898" r="1.898" transform="translate(1259.324 3765.572)" fill="#fff"/>
    <circle id="Ellipse_93" data-name="Ellipse 93" cx="1.898" cy="1.898" r="1.898" transform="translate(1259.324 3779.86)" fill="#fff"/>
    <circle id="Ellipse_94" data-name="Ellipse 94" cx="1.898" cy="1.898" r="1.898" transform="translate(1259.324 3794.147)" fill="#fff"/>
    <circle id="Ellipse_95" data-name="Ellipse 95" cx="1.898" cy="1.898" r="1.898" transform="translate(1259.324 3808.435)" fill="#fff"/>
    <circle id="Ellipse_96" data-name="Ellipse 96" cx="1.898" cy="1.898" r="1.898" transform="translate(1259.324 3822.722)" fill="#fff"/>
    <circle id="Ellipse_97" data-name="Ellipse 97" cx="1.898" cy="1.898" r="1.898" transform="translate(1259.324 3837.01)" fill="#fff"/>
    <circle id="Ellipse_98" data-name="Ellipse 98" cx="1.898" cy="1.898" r="1.898" transform="translate(1259.324 3851.297)" fill="#fff"/>
    <circle id="Ellipse_99" data-name="Ellipse 99" cx="1.898" cy="1.898" r="1.898" transform="translate(1259.324 3865.585)" fill="#fff"/>
    <circle id="Ellipse_100" data-name="Ellipse 100" cx="1.898" cy="1.898" r="1.898" transform="translate(1259.324 3879.872)" fill="#fff"/>
    <circle id="Ellipse_101" data-name="Ellipse 101" cx="1.898" cy="1.898" r="1.898" transform="translate(1259.324 3894.16)" fill="#fff"/>
    <circle id="Ellipse_102" data-name="Ellipse 102" cx="1.898" cy="1.898" r="1.898" transform="translate(1259.324 3908.448)" fill="#fff"/>
    <circle id="Ellipse_103" data-name="Ellipse 103" cx="1.898" cy="1.898" r="1.898" transform="translate(1259.324 3922.735)" fill="#fff"/>
    <circle id="Ellipse_104" data-name="Ellipse 104" cx="1.898" cy="1.898" r="1.898" transform="translate(1271.345 3736.997)" fill="#fff"/>
    <circle id="Ellipse_105" data-name="Ellipse 105" cx="1.898" cy="1.898" r="1.898" transform="translate(1271.345 3751.285)" fill="#fff"/>
    <circle id="Ellipse_106" data-name="Ellipse 106" cx="1.898" cy="1.898" r="1.898" transform="translate(1271.345 3765.572)" fill="#fff"/>
    <circle id="Ellipse_107" data-name="Ellipse 107" cx="1.898" cy="1.898" r="1.898" transform="translate(1271.345 3779.86)" fill="#fff"/>
    <circle id="Ellipse_108" data-name="Ellipse 108" cx="1.898" cy="1.898" r="1.898" transform="translate(1271.345 3794.147)" fill="#fff"/>
    <circle id="Ellipse_109" data-name="Ellipse 109" cx="1.898" cy="1.898" r="1.898" transform="translate(1271.345 3808.435)" fill="#fff"/>
    <circle id="Ellipse_110" data-name="Ellipse 110" cx="1.898" cy="1.898" r="1.898" transform="translate(1271.345 3822.722)" fill="#fff"/>
    <circle id="Ellipse_111" data-name="Ellipse 111" cx="1.898" cy="1.898" r="1.898" transform="translate(1271.345 3837.01)" fill="#fff"/>
    <circle id="Ellipse_112" data-name="Ellipse 112" cx="1.898" cy="1.898" r="1.898" transform="translate(1271.345 3851.297)" fill="#fff"/>
    <circle id="Ellipse_113" data-name="Ellipse 113" cx="1.898" cy="1.898" r="1.898" transform="translate(1271.345 3865.585)" fill="#fff"/>
    <circle id="Ellipse_114" data-name="Ellipse 114" cx="1.898" cy="1.898" r="1.898" transform="translate(1271.345 3879.872)" fill="#fff"/>
    <circle id="Ellipse_115" data-name="Ellipse 115" cx="1.898" cy="1.898" r="1.898" transform="translate(1271.345 3894.16)" fill="#fff"/>
    <circle id="Ellipse_116" data-name="Ellipse 116" cx="1.898" cy="1.898" r="1.898" transform="translate(1271.345 3908.448)" fill="#fff"/>
    <circle id="Ellipse_117" data-name="Ellipse 117" cx="1.898" cy="1.898" r="1.898" transform="translate(1271.345 3922.735)" fill="#fff"/>
  </g>
</svg>
