<svg xmlns="http://www.w3.org/2000/svg" width="40.137" height="23.946" viewBox="0 0 40.137 23.946">
  <g id="Group_71" data-name="Group 71" transform="translate(-272.274 -2628.991)">
    <circle id="Ellipse_130" data-name="Ellipse 130" cx="1.633" cy="1.633" r="1.633" transform="translate(309.146 2628.991)" fill="#fff"/>
    <circle id="Ellipse_131" data-name="Ellipse 131" cx="1.633" cy="1.633" r="1.633" transform="translate(296.855 2628.991)" fill="#fff"/>
    <circle id="Ellipse_132" data-name="Ellipse 132" cx="1.633" cy="1.633" r="1.633" transform="translate(284.564 2628.991)" fill="#fff"/>
    <circle id="Ellipse_133" data-name="Ellipse 133" cx="1.633" cy="1.633" r="1.633" transform="translate(272.274 2628.991)" fill="#fff"/>
    <circle id="Ellipse_134" data-name="Ellipse 134" cx="1.633" cy="1.633" r="1.633" transform="translate(309.146 2639.332)" fill="#fff"/>
    <circle id="Ellipse_135" data-name="Ellipse 135" cx="1.633" cy="1.633" r="1.633" transform="translate(296.855 2639.332)" fill="#fff"/>
    <circle id="Ellipse_136" data-name="Ellipse 136" cx="1.633" cy="1.633" r="1.633" transform="translate(284.564 2639.332)" fill="#fff"/>
    <circle id="Ellipse_137" data-name="Ellipse 137" cx="1.633" cy="1.633" r="1.633" transform="translate(272.274 2639.332)" fill="#fff"/>
    <circle id="Ellipse_138" data-name="Ellipse 138" cx="1.633" cy="1.633" r="1.633" transform="translate(309.146 2649.672)" fill="#fff"/>
    <circle id="Ellipse_139" data-name="Ellipse 139" cx="1.633" cy="1.633" r="1.633" transform="translate(296.855 2649.672)" fill="#fff"/>
    <circle id="Ellipse_140" data-name="Ellipse 140" cx="1.633" cy="1.633" r="1.633" transform="translate(284.564 2649.672)" fill="#fff"/>
    <circle id="Ellipse_141" data-name="Ellipse 141" cx="1.633" cy="1.633" r="1.633" transform="translate(272.274 2649.672)" fill="#fff"/>
  </g>
</svg>
