<svg id="BG" xmlns="http://www.w3.org/2000/svg" width="134.67" height="19.779" viewBox="0 0 134.67 19.779">
  <g id="Group_15" data-name="Group 15" transform="translate(0)">
    <circle id="Ellipse_2" data-name="Ellipse 2" cx="1.349" cy="1.349" r="1.349" transform="translate(131.973)" fill="#fff"/>
    <circle id="Ellipse_3" data-name="Ellipse 3" cx="1.349" cy="1.349" r="1.349" transform="translate(121.821)" fill="#fff"/>
    <circle id="Ellipse_4" data-name="Ellipse 4" cx="1.349" cy="1.349" r="1.349" transform="translate(111.669)" fill="#fff"/>
    <circle id="Ellipse_5" data-name="Ellipse 5" cx="1.349" cy="1.349" r="1.349" transform="translate(101.518)" fill="#fff"/>
    <circle id="Ellipse_6" data-name="Ellipse 6" cx="1.349" cy="1.349" r="1.349" transform="translate(91.366)" fill="#fff"/>
    <circle id="Ellipse_7" data-name="Ellipse 7" cx="1.349" cy="1.349" r="1.349" transform="translate(81.214)" fill="#fff"/>
    <circle id="Ellipse_8" data-name="Ellipse 8" cx="1.349" cy="1.349" r="1.349" transform="translate(131.973 8.541)" fill="#fff"/>
    <circle id="Ellipse_9" data-name="Ellipse 9" cx="1.349" cy="1.349" r="1.349" transform="translate(121.821 8.541)" fill="#fff"/>
    <circle id="Ellipse_10" data-name="Ellipse 10" cx="1.349" cy="1.349" r="1.349" transform="translate(111.669 8.541)" fill="#fff"/>
    <circle id="Ellipse_11" data-name="Ellipse 11" cx="1.349" cy="1.349" r="1.349" transform="translate(101.518 8.541)" fill="#fff"/>
    <circle id="Ellipse_12" data-name="Ellipse 12" cx="1.349" cy="1.349" r="1.349" transform="translate(91.366 8.541)" fill="#fff"/>
    <circle id="Ellipse_13" data-name="Ellipse 13" cx="1.349" cy="1.349" r="1.349" transform="translate(81.214 8.541)" fill="#fff"/>
    <circle id="Ellipse_14" data-name="Ellipse 14" cx="1.349" cy="1.349" r="1.349" transform="translate(71.062 8.541)" fill="#fff"/>
    <circle id="Ellipse_15" data-name="Ellipse 15" cx="1.349" cy="1.349" r="1.349" transform="translate(60.911 8.541)" fill="#fff"/>
    <circle id="Ellipse_16" data-name="Ellipse 16" cx="1.349" cy="1.349" r="1.349" transform="translate(50.759 8.541)" fill="#fff"/>
    <circle id="Ellipse_17" data-name="Ellipse 17" cx="1.349" cy="1.349" r="1.349" transform="translate(40.607 8.541)" fill="#fff"/>
    <circle id="Ellipse_18" data-name="Ellipse 18" cx="1.349" cy="1.349" r="1.349" transform="translate(131.973 17.082)" fill="#fff"/>
    <circle id="Ellipse_19" data-name="Ellipse 19" cx="1.349" cy="1.349" r="1.349" transform="translate(121.821 17.082)" fill="#fff"/>
    <circle id="Ellipse_20" data-name="Ellipse 20" cx="1.349" cy="1.349" r="1.349" transform="translate(111.669 17.082)" fill="#fff"/>
    <circle id="Ellipse_21" data-name="Ellipse 21" cx="1.349" cy="1.349" r="1.349" transform="translate(101.518 17.082)" fill="#fff"/>
    <circle id="Ellipse_22" data-name="Ellipse 22" cx="1.349" cy="1.349" r="1.349" transform="translate(91.366 17.082)" fill="#fff"/>
    <circle id="Ellipse_23" data-name="Ellipse 23" cx="1.349" cy="1.349" r="1.349" transform="translate(81.214 17.082)" fill="#fff"/>
    <circle id="Ellipse_24" data-name="Ellipse 24" cx="1.349" cy="1.349" r="1.349" transform="translate(71.062 17.082)" fill="#fff"/>
    <circle id="Ellipse_25" data-name="Ellipse 25" cx="1.349" cy="1.349" r="1.349" transform="translate(60.911 17.082)" fill="#fff"/>
    <circle id="Ellipse_26" data-name="Ellipse 26" cx="1.349" cy="1.349" r="1.349" transform="translate(50.759 17.082)" fill="#fff"/>
    <circle id="Ellipse_27" data-name="Ellipse 27" cx="1.349" cy="1.349" r="1.349" transform="translate(40.607 17.082)" fill="#fff"/>
    <circle id="Ellipse_28" data-name="Ellipse 28" cx="1.349" cy="1.349" r="1.349" transform="translate(30.455 17.082)" fill="#fff"/>
    <circle id="Ellipse_29" data-name="Ellipse 29" cx="1.349" cy="1.349" r="1.349" transform="translate(20.304 17.082)" fill="#fff"/>
    <circle id="Ellipse_30" data-name="Ellipse 30" cx="1.349" cy="1.349" r="1.349" transform="translate(10.152 17.082)" fill="#fff"/>
    <circle id="Ellipse_31" data-name="Ellipse 31" cx="1.349" cy="1.349" r="1.349" transform="translate(0 17.082)" fill="#fff"/>
  </g>
</svg>
