<svg xmlns="http://www.w3.org/2000/svg" width="150.726" height="22.137" viewBox="0 0 150.726 22.137">
  <g id="Group_222" data-name="Group 222" transform="translate(-439.454 -1902.111)">
    <circle id="Ellipse_32" data-name="Ellipse 32" cx="1.509" cy="1.509" r="1.509" transform="translate(439.454 1902.111)" fill="#fff"/>
    <circle id="Ellipse_33" data-name="Ellipse 33" cx="1.509" cy="1.509" r="1.509" transform="translate(450.816 1902.111)" fill="#fff"/>
    <circle id="Ellipse_34" data-name="Ellipse 34" cx="1.509" cy="1.509" r="1.509" transform="translate(462.178 1902.111)" fill="#fff"/>
    <circle id="Ellipse_35" data-name="Ellipse 35" cx="1.509" cy="1.509" r="1.509" transform="translate(473.54 1902.111)" fill="#fff"/>
    <circle id="Ellipse_36" data-name="Ellipse 36" cx="1.509" cy="1.509" r="1.509" transform="translate(484.902 1902.111)" fill="#fff"/>
    <circle id="Ellipse_37" data-name="Ellipse 37" cx="1.509" cy="1.509" r="1.509" transform="translate(496.264 1902.111)" fill="#fff"/>
    <circle id="Ellipse_38" data-name="Ellipse 38" cx="1.509" cy="1.509" r="1.509" transform="translate(439.454 1911.67)" fill="#fff"/>
    <circle id="Ellipse_39" data-name="Ellipse 39" cx="1.509" cy="1.509" r="1.509" transform="translate(450.816 1911.67)" fill="#fff"/>
    <circle id="Ellipse_40" data-name="Ellipse 40" cx="1.509" cy="1.509" r="1.509" transform="translate(462.178 1911.67)" fill="#fff"/>
    <circle id="Ellipse_41" data-name="Ellipse 41" cx="1.509" cy="1.509" r="1.509" transform="translate(473.54 1911.67)" fill="#fff"/>
    <circle id="Ellipse_42" data-name="Ellipse 42" cx="1.509" cy="1.509" r="1.509" transform="translate(484.902 1911.67)" fill="#fff"/>
    <circle id="Ellipse_43" data-name="Ellipse 43" cx="1.509" cy="1.509" r="1.509" transform="translate(496.264 1911.67)" fill="#fff"/>
    <circle id="Ellipse_44" data-name="Ellipse 44" cx="1.509" cy="1.509" r="1.509" transform="translate(507.626 1911.67)" fill="#fff"/>
    <circle id="Ellipse_45" data-name="Ellipse 45" cx="1.509" cy="1.509" r="1.509" transform="translate(518.988 1911.67)" fill="#fff"/>
    <circle id="Ellipse_46" data-name="Ellipse 46" cx="1.509" cy="1.509" r="1.509" transform="translate(530.351 1911.67)" fill="#fff"/>
    <circle id="Ellipse_47" data-name="Ellipse 47" cx="1.509" cy="1.509" r="1.509" transform="translate(541.713 1911.67)" fill="#fff"/>
    <circle id="Ellipse_48" data-name="Ellipse 48" cx="1.509" cy="1.509" r="1.509" transform="translate(439.454 1921.23)" fill="#fff"/>
    <circle id="Ellipse_49" data-name="Ellipse 49" cx="1.509" cy="1.509" r="1.509" transform="translate(450.816 1921.23)" fill="#fff"/>
    <circle id="Ellipse_50" data-name="Ellipse 50" cx="1.509" cy="1.509" r="1.509" transform="translate(462.178 1921.23)" fill="#fff"/>
    <circle id="Ellipse_51" data-name="Ellipse 51" cx="1.509" cy="1.509" r="1.509" transform="translate(473.54 1921.23)" fill="#fff"/>
    <circle id="Ellipse_52" data-name="Ellipse 52" cx="1.509" cy="1.509" r="1.509" transform="translate(484.902 1921.23)" fill="#fff"/>
    <circle id="Ellipse_53" data-name="Ellipse 53" cx="1.509" cy="1.509" r="1.509" transform="translate(496.264 1921.23)" fill="#fff"/>
    <circle id="Ellipse_54" data-name="Ellipse 54" cx="1.509" cy="1.509" r="1.509" transform="translate(507.626 1921.23)" fill="#fff"/>
    <circle id="Ellipse_55" data-name="Ellipse 55" cx="1.509" cy="1.509" r="1.509" transform="translate(518.988 1921.23)" fill="#fff"/>
    <circle id="Ellipse_56" data-name="Ellipse 56" cx="1.509" cy="1.509" r="1.509" transform="translate(530.351 1921.23)" fill="#fff"/>
    <circle id="Ellipse_57" data-name="Ellipse 57" cx="1.509" cy="1.509" r="1.509" transform="translate(541.713 1921.23)" fill="#fff"/>
    <circle id="Ellipse_58" data-name="Ellipse 58" cx="1.509" cy="1.509" r="1.509" transform="translate(553.075 1921.23)" fill="#fff"/>
    <circle id="Ellipse_59" data-name="Ellipse 59" cx="1.509" cy="1.509" r="1.509" transform="translate(564.437 1921.23)" fill="#fff"/>
    <circle id="Ellipse_60" data-name="Ellipse 60" cx="1.509" cy="1.509" r="1.509" transform="translate(575.799 1921.23)" fill="#fff"/>
    <circle id="Ellipse_61" data-name="Ellipse 61" cx="1.509" cy="1.509" r="1.509" transform="translate(587.161 1921.23)" fill="#fff"/>
  </g>
</svg>
