<?xml version="1.0" encoding="UTF-8" standalone="no"?>
<svg
   xmlns:dc="http://purl.org/dc/elements/1.1/"
   xmlns:cc="http://creativecommons.org/ns#"
   xmlns:rdf="http://www.w3.org/1999/02/22-rdf-syntax-ns#"
   xmlns:svg="http://www.w3.org/2000/svg"
   xmlns="http://www.w3.org/2000/svg"
   xmlns:sodipodi="http://sodipodi.sourceforge.net/DTD/sodipodi-0.dtd"
   xmlns:inkscape="http://www.inkscape.org/namespaces/inkscape"
   width="375"
   height="4000"
   viewBox="0 0 375 4000.0001"
   version="1.1"
   id="svg82"
   sodipodi:docname="Mobile_graphic_animations.svg"
   inkscape:version="1.0.1 (3bc2e813f5, 2020-09-07)">
  <metadata
     id="metadata88">
    <rdf:RDF>
      <cc:Work
         rdf:about="">
        <dc:format>image/svg+xml</dc:format>
        <dc:type
           rdf:resource="http://purl.org/dc/dcmitype/StillImage" />
        <dc:title></dc:title>
      </cc:Work>
    </rdf:RDF>
  </metadata>
  <defs
     id="defs86" />
  <sodipodi:namedview
     pagecolor="#ffffff"
     bordercolor="#666666"
     borderopacity="1"
     objecttolerance="10"
     gridtolerance="10"
     guidetolerance="10"
     inkscape:pageopacity="0"
     inkscape:pageshadow="2"
     inkscape:window-width="1920"
     inkscape:window-height="1017"
     id="namedview84"
     showgrid="false"
     inkscape:zoom="0.44110932"
     inkscape:cx="-263.62926"
     inkscape:cy="600.75811"
     inkscape:window-x="-8"
     inkscape:window-y="-8"
     inkscape:window-maximized="1"
     inkscape:current-layer="Group_290" />
  <g
     id="Group_290"
     data-name="Group 290"
     transform="translate(-878.73779,424.52904)">
  <path class="pathLineMobile320" id="Path_4017" data-name="Path 4017" d="M594.471,-2198.802 C594.471,-2198.802 693.66161,-1027.0553 602.65061,-822.28364 602.65061,-822.28364 914.39131,-782.11177 877.85791,-445.96241 877.85791,-445.96241 812.15191,-72.20058 453.76976,-179.67522 216.79489,-272.44735 218.13836,-441.84126 229.88901,-566.9815 232.83828,-590.65026 249.1233,-663.31792 265.82846,-638.178 274.18228,-614.62527 281.76542,-556.78076 282.08573,-549.61283 282.69591,-535.91052 307.61096,-542.67465 317.60247,-524.73749 327.59454,-506.80028 314.86204,-492.9912 340.34328,-471.97014 365.82407,-450.94904 452.73239,-428.11339 460.73579,-403.69047 468.73896,-379.26759 428.97324,-361.62974 424.58067,-335.58024 420.18809,-309.53071 486.43751,-295.62648 494.16681,-269.98535 501.89671,-244.34423 489.69761,-204.67127 500.74981,-194.63754 511.80211,-184.60384 558.42261,-204.17002 580.84091,-217.97212 603.25891,-231.7743 576.07961,-230.29153 598.83601,-254.965 621.59281,-279.63848 660.58811,-292.19455 661.22201,-318.76151 661.85561,-345.32847 619.07511,-349.14336 595.58521,-354.3226 572.09481,-359.50187 569.19711,-346.99458 568.58201,-338.69196 568.21301,-333.74012 582.44441,-324.24244 587.48861,-335.74732 592.53351,-347.25215 563.26331,-373.85862 539.66151,-385.80667 516.06061,-397.75474 492.55641,-368.6886 480.25805,-403.69279 473.87098,-414.23629 463.90532,-422.13133 452.18019,-425.93677 452.18019,-425.93677 412.08263,-443.86933 416.50083,-469.3016 420.91926,-494.73388 372.82278,-451.53848 363.78928,-474.28597 354.75568,-497.03346 355.28931,-525.9952 387.58526,-533.84069 419.88166,-541.68615 438.93263,-500.08716 448.56959,-520.63026 453.36831,-530.86118 447.3583,-547.69151 450.22889,-559.30776 452.78152,-569.69417 464.27689,-574.85486 480.251,-584.48247 480.251,-584.48247 522.97071,-607.84026 528.30321,-621.95333 533.63551,-636.0664 507.65071,-650.14464 493.96041,-654.12419 480.26946,-658.10383 464.64118,-620.15729 526.99891,-642.37574 526.99891,-642.37574 578.51331,-665.9145 578.51331,-682.12527 578.51331,-698.33602 530.41001,-715.56084 530.41001,-715.56084 530.41001,-715.56084 489.98061,-731.16367 487.08473,-718.2294 484.18896,-705.29512 499.63611,-696.52606 493.02051,-682.12992 486.40483,-667.73375 474.41054,-646.1511 453.76775,-666.25331 433.12474,-686.35544 412.73466,-673.21468 400.81894,-684.77059 388.90355,-696.32652 408.65289,-712.8111 398.17162,-724.19065 387.6899,-735.57021 357.26858,-726.78026 340.33858,-711.07771 330.94314,-702.36203 310.86856,-685.95407 296.79729,-672.5348 286.42246,-662.63571 281.98355,-658.79995 278.52135,-660.96961 275.05938,-663.13924 264.85164,-669.9382 322.09275,-718.22706 379.33385,-766.5159 430.9223,-800.20214 525.98241,-807.24472 621.04351,-814.28733 572.41271,-770.72521 562.73411,-762.15112 553.05541,-753.577 566.93351,-759.283 584.08271,-748.26083 601.23081,-737.2386 622.25421,-717.39865 631.31571,-718.05998 643.79731,-718.97653 626.03221,-735.92756 634.04971,-748.26083 642.06661,-760.59409 653.28371,-752.05016 660.12161,-762.61981 666.96041,-773.18956 652.69661,-776.84661 658.55341,-784.48098 664.40981,-792.11529 697.16321,-794.79777 725.35701,-769.17981 753.55061,-743.56184 758.26591,-700.51728 771.32101,-682.01158 784.37561,-663.50587 779.93001,-686.23712 777.58611,-695.15931 775.24211,-704.08152 761.93211,-712.22169 761.93211,-717.70031 761.93211,-723.17893 771.16731,-727.56228 777.58611,-717.07376 784.00421,-706.58528 801.22241,-648.8266 791.98691,-639.43336 782.75091,-630.04016 759.73251,-646.47598 750.66151,-638.18032 741.59081,-629.88467 739.91301,-617.39825 755.67161,-606.24842 771.42981,-595.09858 818.12931,-660.2526 832.68581,-648.8266 847.24191,-637.40064 863.05361,-598.73475 855.22671,-584.33396 847.39961,-569.93317 841.45211,-583.0809 801.39161,-591.22109 801.39161,-591.22109 782.60801,-600.61204 758.81351,-557.40963 758.81351,-557.40963 698.12391,-481.28679 683.67661,-491.04434 669.22931,-500.80187 682.90211,-528.44789 695.57371,-510.45502 708.24631,-492.46214 721.77481,-468.74703 743.16011,-457.23288 764.54491,-445.71875 769.14881,-467.2109 781.11831,-464.40312 793.08661,-461.59534 780.04561,-447.61452 790.99161,-445.96934 801.93711,-444.32417 813.52991,-460.77389 824.87721,-457.81299 836.22451,-454.85208 847.25811,-454.52026 836.39611,-434.11409 836.39611,-434.11409 818.21041,-418.06808 815.98961,-404.81825 813.76891,-391.56838 834.88051,-389.98352 836.39611,-362.49764 837.91091,-335.01167 799.28231,-355.07211 810.96161,-301.65972 822.64011,-248.24726 1041.49231,-684.86574 617.43481,-823.28607 617.43481,-823.28607 394.90192,-839.46435 293.69715,-727.62029 192.4926,-615.77627 172.80103,-524.81172 212.63892,-375.90988 252.4766,-227.00804 400.21368,-101.63103 607.40761,-144.16515 607.40761,-144.16515 574.81931,0.06558 439.66626,-60.57741 304.51317,-121.2204 177.81102,15.64526 190.68031,204.94638 203.54958,394.24748 405.74323,472.26388 405.74323,472.26388 405.74323,472.26388 616.16321,543.53688 555.07221,716.62268 544.30761,708.50332 533.54301,700.38395 522.77841,692.26458 522.77841,692.26458 525.57871,680.98018 520.27881,677.19308 514.97931,673.40618 501.57601,677.11808 501.57601,677.11808 501.57601,677.11808 504.75261,669.85978 502.53661,668.49308 500.32061,667.12628 498.78941,673.48888 494.35511,669.11718 489.03707,664.14718 485.36646,657.66944 483.83586,650.55328 479.42739,630.68328 480.93571,611.04998 475.08104,592.17068 469.22648,573.29128 441.46915,567.22558 424.14452,568.88258 399.64279,571.22598 384.43431,587.29058 374.92505,597.50078 366.72457,606.30468 370.51648,614.67208 378.5333,614.41478 383.97265,614.26788 401.506,597.50078 401.506,597.50078 401.506,597.50078 435.61683,570.79918 460.66394,596.26858 473.40969,612.85176 477.52675,634.50072 471.75796,654.60488 454.38229,653.90898 449.66034,651.35648 449.1613,648.85508 448.64144,646.22588 452.97873,644.78238 455.32453,638.58458 457.49195,632.85298 457.5732,624.06768 452.86009,621.32978 449.69269,619.48938 445.39984,620.98378 443.00064,622.56178 438.93595,625.43934 436.86502,630.38064 437.66348,635.29638 429.52749,626.68175 417.79981,622.41733 406.03075,623.79408 406.44149,616.67328 406.85223,609.55248 407.26297,602.43168 407.26297,602.43168 398.21337,595.85788 383.8473,616.81858 383.8473,616.81858 378.9164,641.46878 393.29623,645.98678 393.29623,645.98678 390.62552,659.54528 394.11771,667.35138 397.6099,675.15738 400.99778,670.94568 407.26297,677.21098 409.85042,679.79828 407.68323,680.59658 410.00363,684.14688 412.35425,687.75298 419.22045,693.85588 424.14676,694.55648 429.23781,695.27808 438.76576,690.69978 443.00512,692.28238 452.87195,695.96268 440.02809,709.01768 452.86468,704.94298 465.70161,700.86798 467.71591,689.64168 478.28325,684.14688 488.85081,678.65198 501.34181,679.27378 495.17881,682.96118 495.17881,682.96118 474.22688,691.58838 452.86468,767.18008 452.86468,767.18008 445.96838,791.96728 444.64584,787.70228 443.32308,783.43728 445.13078,770.49838 447.57184,750.12218 450.01289,729.74628 466.59964,723.28158 454.40568,706.20058 454.40568,706.20058 441.71727,703.27198 452.94146,727.18448 452.94146,727.18448 433.7488,776.19738 425.20741,775.46408 416.66546,774.73088 421.2183,739.63138 418.7796,724.25838 416.34079,708.88538 411.33557,723.76888 414.38714,716.93738 417.43837,710.10588 435.80709,708.11958 430.19382,697.25048 427.96642,692.93918 413.71854,694.05978 407.26297,688.88298 398.83037,682.10018 396.98786,670.06158 390.00124,673.62588 378.41512,679.53618 383.8473,720.89368 383.8473,720.89368 383.8473,720.89368 345.18845,740.78238 382.57098,736.65908 392.37999,735.30421 401.75697,731.75392 410.00363,726.27258 427.0685,715.61238 377.44501,724.85248 366.17225,731.63058 361.4155,734.49158 367.59473,742.72468 369.97311,751.41248 372.78338,761.70618 387.4927,827.54218 387.4927,827.54218 387.4927,827.54218 391.25909,839.52508 418.64731,839.18418 418.64731,839.18418 430.74625,807.87388 430.19382,784.65318 430.19382,784.65318 424.66662,794.05098 418.03478,857.61318 418.03478,857.61318 406.43232,969.81698 422.45746,983.63298 422.45746,983.63298 440.28326,1005.77238 446.22367,964.31958 452.16396,922.86668 424.11419,894.64548 446.22367,817.81728 451.56691,796.07682 456.91015,774.33635 462.2534,752.59588 462.2534,752.59588 461.68038,805.19378 457.27818,839.17708 452.87643,873.16008 448.34687,862.08478 444.64584,882.78788 442.34022,894.77596 443.65943,907.17917 448.43506,918.41408 451.38276,939.96955 454.33047,961.52502 457.27818,983.08048 457.27818,983.08048 466.12164,1019.56048 556.76821,998.00588 556.76821,998.00588 536.87071,799.57838 504.81301,761.99148 504.81301,761.99148 541.29061,908.46388 557.32041,955.99858 560.45224,975.15938 563.58407,994.32018 566.71591,1013.48098 566.71591,1013.48098 571.96751,1033.93118 576.66611,1034.48368 581.36551,1035.03588 582.22171,1011.08398 585.50951,1015.68768 588.79791,1020.29148 593.82601,1032.55068 589.81671,1052.91018 589.81671,1052.91018 575.50811,1056.62298 572.81661,1041.23828 570.12501,1025.85358 593.96801,1060.08058 593.96801,1060.08058 635.08577,1112.24538 676.20354,1164.41018 717.32131,1216.57498 719.60241,1222.08838 721.88351,1227.60178 724.16461,1233.11518 724.16461,1233.11518 852.34691,1402.14468 868.55971,1414.27618 884.77341,1426.40768 883.32211,1410.64938 889.90841,1414.27618 896.49371,1417.90328 878.78831,1428.13398 894.31721,1429.15288 909.84581,1430.17168 914.77211,1421.69498 913.25931,1414.27618 910.60334,1404.47837 901.61953,1397.74583 891.47011,1397.94718 908.01804,1385.02995 924.56597,1372.11272 941.11391,1359.19548 941.11391,1359.19548 948.82221,1384.18458 960.60571,1387.73738 968.15871,1390.01138 979.04651,1378.91938 977.22081,1371.54718 975.39411,1364.17508 959.12041,1348.31948 953.29831,1358.22068 947.47681,1368.12238 991.50951,1376.00718 967.87591,1340.37888 944.24191,1304.75008 858.76541,1215.71188 858.76541,1215.71188 858.76541,1215.71188 891.45801,1190.28428 944.13021,1259.30138 944.13021,1259.30138 981.66591,1313.18518 964.10961,1326.50468 921.12371,1275.85052 878.13781,1225.19635 835.15191,1174.54218 835.15191,1174.54218 815.85261,1150.01688 789.13941,1155.16818 762.42681,1160.31968 728.29921,1195.14998 728.29921,1195.14998 727.59278,1195.61653 727.10902,1196.3528 726.9612,1197.18638 726.81338,1198.01996 727.01447,1198.87767 727.51741,1199.55868 732.11494,1205.74662 736.71247,1211.93455 741.31001,1218.12248 738.68714,1220.54348 736.06427,1222.96448 733.44141,1225.38548 689.65434,1168.88372 645.86727,1112.38195 602.08021,1055.88018 604.12229,1040.32328 603.30203,1024.52407 599.65991,1009.26228 599.65991,1009.26228 599.65991,922.68558 594.81491,905.73458 592.90138,891.6876 590.27499,877.74698 586.94591,863.96668 582.55791,847.77198 581.34451,864.43038 577.25851,840.96118 573.17191,817.49188 570.59831,770.12448 570.59831,770.12448 570.59831,770.12448 577.40651,748.96428 545.92461,709.61158 545.92461,709.61158 577.86111,729.64648 577.86111,759.41788 578.95114,783.55768 580.04117,807.69748 581.13121,831.83728 585.36981,887.68858 589.60841,943.53988 593.84701,999.39118 593.84701,999.39118 593.09751,1036.78968 554.94901,1004.62578 554.94901,1004.62578 495.26901,1016.23978 468.9525,1005.92778 457.32261,1001.36798 455.7261,974.63158 449.14037,981.46088 442.55498,988.28968 433.33582,1028.71938 430.21923,1048.64538 426.63414,1071.56898 426.06582,1086.31788 424.33019,1112.99848 423.16993,1130.99368 428.2235,1140.34028 417.3804,1164.61058 406.53685,1188.87988 410.0221,1190.75968 413.136,1210.69018 416.25002,1230.62048 402.16957,1268.84798 397.86989,1297.83238 393.56998,1326.81758 381.50585,1354.36148 378.88607,1363.52518 376.26639,1372.68888 400.73567,1355.44528 373.18472,1377.87948 345.63377,1400.31408 281.24556,1382.25378 292.2355,1404.42108 303.22521,1426.58858 414.26604,1436.72398 423.22321,1433.55928 432.18004,1430.39398 442.97266,1411.38708 431.53281,1397.32718 420.09296,1383.26778 376.79767,1378.29978 377.82553,1379.90768 380.93518,1385.11468 412.99454,1413.88138 432.61406,1388.69778 455.66801,1359.10478 457.0999,1309.10568 469.68131,1258.94628 482.26295,1208.78738 473.26427,1224.57798 482.61315,1189.23528 489.36267,1164.8911 497.53231,1140.96316 507.08011,1117.57438 507.08011,1117.57438 536.45981,1057.62988 535.12301,1061.48668 533.78621,1065.34318 502.94501,1098.02928 501.73131,1132.99628 501.00301,1153.97558 516.70341,1178.33568 530.52161,1203.36918 544.33971,1228.40238 544.01281,1212.20768 557.00961,1233.12398 570.00671,1254.04108 566.88771,1248.86858 582.50871,1287.03798 598.13091,1325.20728 605.77431,1371.14328 617.26971,1382.22818 639.80881,1403.96398 671.40861,1366.12418 673.39711,1372.63768 677.89881,1387.37938 641.93641,1374.97708 614.84951,1384.39068 587.76281,1393.80518 593.49001,1401.89198 565.53461,1406.56068 537.58061,1411.22928 524.66021,1434.58008 551.06231,1434.58008 577.46451,1434.58008 667.90241,1427.98528 680.61891,1403.30288 680.61891,1403.30288 685.10601,1382.35808 667.90241,1349.44468 667.90241,1349.44468 638.54391,1259.87488 620.77831,1217.04808 603.01301,1174.22168 596.84281,1178.15248 596.84281,1178.15248 596.84281,1178.15248 567.66961,1096.62068 562.43451,1045.00888 564.42324,1040.20248 566.41197,1035.39608 568.40071,1030.58968 565.73207,1025.13965 563.06344,1019.68962 560.39481,1014.23958 563.39844,1027.20095 566.40207,1040.16232 569.40571,1053.12368 574.42112,1102.44796 585.39411,1150.9829 602.08481,1197.66758 629.13891,1271.47488 653.96131,1295.45898 677.62281,1348.35418 701.28451,1401.24878 853.69511,1494.71488 953.32171,1738.12908 1052.94851,1981.54358 915.39601,2391.44888 829.84261,2522.21428 744.28951,2652.97918 793.64351,2556.13678 636.89641,2119.30308 636.89641,2119.30308 476.33632,2139.60458 650.73781,2295.55128 650.73781,2295.55128 427.43011,2329.69218 373.90626,2376.75318 373.90626,2376.75318 350.40015,2417.87928 384.05603,2409.04968 384.05603,2409.04968 407.04272,2407.09558 360.07885,2368.72248 333.39337,2346.92628 196.14741,2266.04418 197.89703,2255.75758 208.26481,2194.85478 315.77663,2147.27168 403.38332,2124.83448 490.99011,2102.39808 532.90221,2095.88188 607.36371,2094.38758 607.36371,2094.38758 639.66001,2095.31608 618.43741,2081.46988 618.43741,2081.46988 599.05881,2070.39648 613.82381,2109.15338 613.82381,2109.15338 792.38121,2584.59958 797.97861,2862.67738 803.57521,3140.75428 603.782,5770.365 603.782,5770.365   "fill="none" stroke="#00ffc2" stroke-miterlimit="10" stroke-width="7"/>
       id="Path_4019"
       data-name="Path 4019"
       d="M 1071.294,429"
       fill="none"
       stroke="#b90000"
       stroke-miterlimit="10"
       stroke-width="1" />
  </g>
</svg>
