<?xml version="1.0" encoding="UTF-8" standalone="no"?>
<svg
   xmlns:dc="http://purl.org/dc/elements/1.1/"
   xmlns:cc="http://creativecommons.org/ns#"
   xmlns:rdf="http://www.w3.org/1999/02/22-rdf-syntax-ns#"
   xmlns:svg="http://www.w3.org/2000/svg"
   xmlns="http://www.w3.org/2000/svg"
   xmlns:sodipodi="http://sodipodi.sourceforge.net/DTD/sodipodi-0.dtd"
   xmlns:inkscape="http://www.inkscape.org/namespaces/inkscape"
   width="375"
   height="4000"
   viewBox="0 0 375 4000.0001"
   version="1.1"
   id="svg82"
   sodipodi:docname="Mobile_graphic_animations.svg"
   inkscape:version="1.0.1 (3bc2e813f5, 2020-09-07)">
  <metadata
     id="metadata88">
    <rdf:RDF>
      <cc:Work
         rdf:about="">
        <dc:format>image/svg+xml</dc:format>
        <dc:type
           rdf:resource="http://purl.org/dc/dcmitype/StillImage" />
        <dc:title></dc:title>
      </cc:Work>
    </rdf:RDF>
  </metadata>
  <defs
     id="defs86" />
  <sodipodi:namedview
     pagecolor="#ffffff"
     bordercolor="#666666"
     borderopacity="1"
     objecttolerance="10"
     gridtolerance="10"
     guidetolerance="10"
     inkscape:pageopacity="0"
     inkscape:pageshadow="2"
     inkscape:window-width="1920"
     inkscape:window-height="1017"
     id="namedview84"
     showgrid="false"
     inkscape:zoom="0.44110932"
     inkscape:cx="-263.62926"
     inkscape:cy="600.75811"
     inkscape:window-x="-8"
     inkscape:window-y="-8"
     inkscape:window-maximized="1"
     inkscape:current-layer="Group_290" />
  <g
     id="Group_290"
     data-name="Group 290"
     transform="translate(-878.73779,424.52904)">
    <path
       id="Path_4017"
       data-name="Path 4017"
       d="m 1116.1502,-415.1616 c 0,0 88.7344,220.69932 -2.2766,425.470975 0,0 311.7407,40.171877 275.2073,376.321235 0,0 -65.706,373.76183 -424.08815,266.28719 C 728.01788,560.14567 729.36135,390.75176 741.112,265.61152 c 2.94927,-23.66876 19.23429,-96.33642 35.93945,-71.1965 8.35382,23.55273 15.93696,81.39724 16.25727,88.56517 0.61018,13.70231 25.52523,6.93818 35.51674,24.87534 9.99207,17.93721 -2.74043,31.74629 22.74081,52.76735 25.48079,21.0211 112.38911,43.85675 120.39251,68.27967 8.00317,24.42288 -31.76255,42.06073 -36.15512,68.11023 -4.39258,26.04953 61.85684,39.95376 69.58614,65.59489 7.7299,25.64112 -4.4692,65.31408 6.583,75.34781 11.0523,10.0337 57.6728,-9.53248 80.0911,-23.33458 22.418,-13.80218 -4.7613,-12.31941 17.9951,-36.99288 22.7568,-24.67348 61.7521,-37.22955 62.386,-63.79651 0.6336,-26.56696 -42.1469,-30.38185 -65.6368,-35.56109 -23.4904,-5.17927 -26.3881,7.32802 -27.0032,15.63064 -0.369,4.95184 13.8624,14.44952 18.9066,2.94464 5.0449,-11.50483 -24.2253,-38.1113 -47.8271,-50.05935 -23.6009,-11.94807 -47.1051,17.11807 -59.40346,-17.88612 a 51.368116,51.368116 0 0 0 -28.07786,-22.24398 c 0,0 -40.09756,-17.93256 -35.67936,-43.36483 4.41843,-25.43228 -43.67805,17.76312 -52.71155,-4.98437 -9.0336,-22.74749 -8.49997,-51.70923 23.79598,-59.55472 32.2964,-7.84546 51.34737,33.75353 60.98433,13.21043 4.79872,-10.23092 -1.21129,-27.06125 1.6593,-38.6775 2.55263,-10.38641 14.048,-15.5471 30.02211,-25.17471 0,0 42.71971,-23.35779 48.05221,-37.47086 5.3323,-14.11307 -20.6525,-28.19131 -34.3428,-32.17086 -13.69095,-3.97964 -29.31923,33.9669 33.0385,11.74845 0,0 51.5144,-23.53876 51.5144,-39.74953 0,-16.21075 -48.1033,-33.43557 -48.1033,-33.43557 0,0 -40.4294,-15.60283 -43.32528,-2.66856 -2.89577,12.93428 12.55138,21.70334 5.93578,36.09948 -6.61568,14.39617 -18.60997,35.97882 -39.25276,15.87661 -20.64301,-20.10213 -41.03309,-6.96137 -52.94881,-18.51728 -11.91539,-11.55593 7.83395,-28.04051 -2.64732,-39.42006 -10.48172,-11.37956 -40.90304,-2.58961 -57.83304,13.11294 -9.39544,8.71568 -29.47002,25.12364 -43.54129,38.54291 -10.37483,9.89909 -14.81374,13.73485 -18.27594,11.56519 -3.46197,-2.16963 -13.66971,-8.96859 43.5714,-57.25745 57.2411,-48.288846 108.82955,-81.975078 203.88966,-89.017666 95.0611,-7.042606 46.4303,36.519513 36.7517,45.093604 -9.6787,8.574123 4.1994,2.868116 21.3486,13.890286 17.1481,11.022238 38.1715,30.862186 47.233,30.200856 12.4816,-0.91655 -5.2835,-17.867582 2.734,-30.200856 8.0169,-12.333257 19.234,-3.789323 26.0719,-14.35898 6.8388,-10.56975 -7.425,-14.226795 -1.5682,-21.861167 5.8564,-7.634311 38.6098,-10.316794 66.8036,15.301175 28.1936,25.617964 32.9089,68.662528 45.964,87.168228 13.0546,18.50571 8.609,-4.22554 6.2651,-13.14773 -2.344,-8.92221 -15.654,-17.06238 -15.654,-22.541 0,-5.47862 9.2352,-9.86197 15.654,0.62655 6.4181,10.48848 23.6363,68.24716 14.4008,77.6404 -9.236,9.3932 -32.2544,-7.04262 -41.3254,1.25304 -9.0707,8.29565 -10.7485,20.78207 5.0101,31.9319 15.7582,11.14984 62.4577,-54.00418 77.0142,-42.57818 14.5561,11.42596 30.3678,50.09185 22.5409,64.49264 -7.8271,14.40079 -13.7746,1.25306 -53.8351,-6.88713 0,0 -18.7836,-9.39095 -42.5781,33.81146 0,0 -60.6896,76.12284 -75.1369,66.36529 -14.4473,-9.75753 -0.7745,-37.40355 11.8971,-19.41068 12.6726,17.99288 26.2011,41.70799 47.5864,53.22214 21.3848,11.51413 25.9887,-9.97802 37.9582,-7.17024 11.9683,2.80778 -1.0727,16.7886 9.8733,18.43378 10.9455,1.64517 22.5383,-14.80455 33.8856,-11.84365 11.3473,2.96091 22.3809,3.29273 11.5189,23.6989 0,0 -18.1857,16.04601 -20.4065,29.29584 -2.2207,13.24987 18.8909,14.83473 20.4065,42.32061 1.5148,27.48597 -37.1138,7.42553 -25.4345,60.83792 11.6785,53.41246 230.5307,-383.20602 -193.5268,-521.6263525 0,0 -222.53289,-16.1782816 -323.73766,95.6657825 -101.20455,111.84402 -120.89612,202.80857 -81.05823,351.71041 39.83768,148.90184 187.57476,274.27885 394.76869,231.74473 0,0 -32.5883,144.23073 -167.74135,83.58774 -135.15309,-60.64299 -261.85524,76.22267 -248.98595,265.52379 12.86927,189.3011 215.06292,267.3175 215.06292,267.3175 0,0 210.41998,71.273 149.32898,244.3588 l -32.2938,-24.3581 c 0,0 2.8003,-11.2844 -2.4996,-15.0715 -5.2995,-3.7869 -18.7028,-0.075 -18.7028,-0.075 0,0 3.1766,-7.2583 0.9606,-8.625 -2.216,-1.3668 -3.7472,4.9958 -8.1815,0.6241 a 35.677133,35.677133 0 0 1 -10.51925,-18.5639 c -4.40847,-19.87 -2.90015,-39.5033 -8.75482,-58.3826 -5.85456,-18.8794 -33.61189,-24.9451 -50.93652,-23.2881 -24.50173,2.3434 -39.71021,18.408 -49.21947,28.6182 -8.20048,8.8039 -4.40857,17.1713 3.60825,16.914 5.43935,-0.1469 22.9727,-16.914 22.9727,-16.914 0,0 34.11083,-26.7016 59.15794,-1.2322 a 65.901179,65.901179 0 0 1 11.09402,58.3363 c -17.37567,-0.6959 -22.09762,-3.2484 -22.59666,-5.7498 -0.51986,-2.6292 3.81743,-4.0727 6.16323,-10.2705 2.16742,-5.7316 2.24867,-14.5169 -2.46444,-17.2548 -3.1674,-1.8404 -7.46025,-0.346 -9.85945,1.232 a 13.041008,13.041008 0 0 0 -5.33716,12.7346 37.514942,37.514942 0 0 0 -31.63273,-11.5023 l 1.23222,-21.3624 c 0,0 -9.0496,-6.5738 -23.41567,14.3869 0,0 -4.9309,24.6502 9.44893,29.1682 0,0 -2.67071,13.5585 0.82148,21.3646 3.49219,7.806 6.88007,3.5943 13.14526,9.8596 2.58745,2.5873 0.42026,3.3856 2.74066,6.9359 2.35062,3.6061 9.21682,9.709 14.14313,10.4096 5.09105,0.7216 14.619,-3.8567 18.85836,-2.2741 9.86683,3.6803 -2.97703,16.7353 9.85956,12.6606 12.83693,-4.075 14.85123,-15.3013 25.41857,-20.7961 10.56756,-5.4949 23.05856,-4.8731 16.89556,-1.1857 0,0 -20.95193,8.6272 -42.31413,84.2189 0,0 -6.8963,24.7872 -8.21884,20.5222 -1.32276,-4.265 0.48494,-17.2039 2.926,-37.5801 2.44105,-20.3759 19.0278,-26.8406 6.83384,-43.9216 0,0 -12.68841,-2.9286 -1.46422,20.9839 0,0 -19.19266,49.0129 -27.73405,48.2796 -8.54195,-0.7332 -3.98911,-35.8327 -6.42781,-51.2057 -2.43881,-15.373 -7.44403,-0.4895 -4.39246,-7.321 3.05123,-6.8315 21.41995,-8.8178 15.80668,-19.6869 -2.2274,-4.3113 -16.47528,-3.1907 -22.93085,-8.3675 -8.4326,-6.7828 -10.27511,-18.8214 -17.26173,-15.2571 -11.58612,5.9103 -6.15394,47.2678 -6.15394,47.2678 0,0 -38.65885,19.8887 -1.27632,15.7654 a 65.829245,65.829245 0 0 0 27.43265,-10.3865 c 17.06487,-10.6602 -32.55862,-1.4201 -43.83138,5.358 -4.75675,2.861 1.42248,11.0941 3.80086,19.7819 2.81027,10.2937 17.51959,76.1297 17.51959,76.1297 0,0 3.76639,11.9829 31.15461,11.642 0,0 12.09894,-31.3103 11.54651,-54.531 0,0 -5.5272,9.3978 -12.15904,72.96 0,0 -11.60246,112.2038 4.42268,126.0198 0,0 17.8258,22.1394 23.76621,-19.3134 5.94029,-41.4529 -22.10948,-69.6741 0,-146.5023 l 16.02973,-65.2214 c 0,0 -0.57302,52.5979 -4.97522,86.5812 -4.40175,33.983 -8.93131,22.9077 -12.63234,43.6108 a 61.418042,61.418042 0 0 0 3.78922,35.6262 l 8.84312,64.6664 c 0,0 8.84346,36.48 99.49003,14.9254 0,0 -19.8975,-198.4275 -51.9552,-236.0144 0,0 36.4776,146.4724 52.5074,194.0071 l 9.3955,57.4824 c 0,0 5.2516,20.4502 9.9502,21.0027 4.6994,0.5522 5.5556,-23.3997 8.8434,-18.796 3.2884,4.6038 8.3165,16.863 4.3072,37.2225 0,0 -14.3086,3.7128 -17.0001,-11.6719 -2.6916,-15.3847 21.1514,18.8423 21.1514,18.8423 l 123.3533,156.4944 6.8433,16.5402 c 0,0 128.1823,169.0295 144.3951,181.161 16.2137,12.1315 14.7624,-3.6268 21.3487,0 6.5853,3.6271 -11.1201,13.8578 4.4088,14.8767 15.5286,1.0188 20.4549,-7.4579 18.9421,-14.8767 a 22.120981,22.120981 0 0 0 -21.7892,-16.329 l 49.6438,-38.7517 c 0,0 7.7083,24.9891 19.4918,28.5419 7.553,2.274 18.4408,-8.818 16.6151,-16.1902 -1.8267,-7.3721 -18.1004,-23.2277 -23.9225,-13.3265 -5.8215,9.9017 38.2112,17.7865 14.5776,-17.8418 -23.634,-35.6288 -109.1105,-124.667 -109.1105,-124.667 0,0 32.6926,-25.4276 85.3648,43.5895 0,0 37.5357,53.8838 19.9794,67.2033 l -128.9577,-151.9625 c 0,0 -19.2993,-24.5253 -46.0125,-19.374 -26.7126,5.1515 -60.8402,39.9818 -60.8402,39.9818 a 3.0862171,3.0862171 0 0 0 -0.7818,4.4087 l 13.7926,18.5638 -7.8686,7.263 -131.3612,-169.5053 a 128.68132,128.68132 0 0 0 -2.4203,-46.6179 c 0,0 0,-86.5767 -4.845,-103.5277 a 418.30306,418.30306 0 0 0 -7.869,-41.7679 c -4.388,-16.1947 -5.6014,0.4637 -9.6874,-23.0055 -4.0866,-23.4693 -6.6602,-70.8367 -6.6602,-70.8367 0,0 6.8082,-21.1602 -24.6737,-60.5129 0,0 31.9365,20.0349 31.9365,49.8063 l 3.2701,72.4194 12.7158,167.5539 c 0,0 -0.7495,37.3985 -38.898,5.2346 0,0 -59.68,11.614 -85.99651,1.302 -11.62989,-4.5598 -13.2264,-31.2962 -19.81213,-24.4669 -6.58539,6.8288 -15.80455,47.2585 -18.92114,67.1845 -3.58509,22.9236 -4.15341,37.6725 -5.88904,64.3531 -1.16026,17.9952 3.89331,27.3418 -6.94979,51.6121 -10.84355,24.2693 -7.3583,26.1491 -4.2444,46.0796 3.11402,19.9303 -10.96643,58.1578 -15.26611,87.1422 -4.29991,28.9852 -16.36404,56.5291 -18.98382,65.6928 -2.61968,9.1637 21.8496,-8.0799 -5.70135,14.3543 -27.55095,22.4346 -91.93916,4.3743 -80.94922,26.5416 10.98971,22.1675 122.03054,32.3029 130.98771,29.1382 8.95683,-3.1653 19.74945,-22.1722 8.3096,-36.2321 -11.43985,-14.0594 -54.73514,-19.0274 -53.70728,-17.4195 3.10965,5.207 35.16901,33.9737 54.78853,8.7901 23.05395,-29.593 24.48584,-79.5921 37.06725,-129.7515 12.58164,-50.1589 3.58296,-34.3683 12.93184,-69.711 a 646.94539,646.94539 0 0 1 24.46696,-71.6609 c 0,0 29.3797,-59.9445 28.0429,-56.0877 -1.3368,3.8565 -32.178,36.5426 -33.3917,71.5096 -0.7283,20.9793 14.9721,45.3394 28.7903,70.3729 13.8181,25.0332 13.4912,8.8385 26.488,29.7548 12.9971,20.9171 9.8781,15.7446 25.4991,53.914 15.6222,38.1693 23.2656,84.1053 34.761,95.1902 22.5391,21.7358 54.1389,-16.104 56.1274,-9.5905 4.5017,14.7417 -31.4607,2.3394 -58.5476,11.753 -27.0867,9.4145 -21.3595,17.5013 -49.3149,22.17 -27.954,4.6686 -40.8744,28.0194 -14.4723,28.0194 26.4022,0 116.8401,-6.5948 129.5566,-31.2772 0,0 4.4871,-20.9448 -12.7165,-53.8582 0,0 -29.3585,-89.5698 -47.1241,-132.3966 -17.7653,-42.8264 -23.9355,-38.8956 -23.9355,-38.8956 0,0 -29.1732,-81.5318 -34.4083,-133.1436 l 5.9662,-14.4192 -8.0059,-16.3501 9.0109,38.8841 a 613.79983,613.79983 0 0 0 32.6791,144.5439 c 27.0541,73.8073 51.8765,97.7914 75.538,150.6866 23.6617,52.8946 176.0723,146.3607 275.6989,389.7749 99.6268,243.4145 -37.9257,653.3198 -123.4791,784.0852 -85.5531,130.7649 -36.1991,33.9225 -192.9462,-402.9112 0,0 -160.56009,20.3015 13.8414,176.2482 0,0 -223.3077,34.1409 -276.83155,81.2019 0,0 -23.50611,41.1261 10.14977,32.2965 0,0 22.98669,-1.9541 -23.97718,-40.3272 -26.68548,-21.7962 -163.93144,-102.6783 -162.18182,-112.9649 10.36778,-60.9028 117.8796,-108.4859 205.48629,-130.9231 87.60679,-22.4364 129.51889,-28.9526 203.98039,-30.4469 0,0 32.2963,0.9285 11.0737,-12.9177 0,0 -19.3786,-11.0734 -4.6136,27.6835 0,0 178.5574,475.4462 184.1548,753.524 5.5966,278.0769 -161.7646,358.7831 -161.7646,358.7831"
       fill="none"
       stroke="#00ffc2"
       stroke-miterlimit="10"
       stroke-width="2.03301" />
    <path
       id="Path_4019"
       data-name="Path 4019"
       d="M 1071.294,429"
       fill="none"
       stroke="#b90000"
       stroke-miterlimit="10"
       stroke-width="1" />
  </g>
</svg>
