<svg xmlns="http://www.w3.org/2000/svg" width="345.541" height="1926.96" viewBox="0 0 345.541 1926.96">
  <g id="Group_290" data-name="Group 290" transform="translate(-919.544 417.728)">
    <path id="Path_4017" data-name="Path 4017" d="M1099.213-417.448s38.24,95.11-.981,183.356c0,0,134.344,17.312,118.6,162.175,0,0-28.316,161.072-182.76,114.756C931.948,2.859,932.527-70.141,937.591-124.07c1.271-10.2,8.289-41.516,15.488-30.682,3.6,10.15,6.868,35.078,7.006,38.167.263,5.905,11,2.99,15.306,10.72s-1.181,13.681,9.8,22.74,48.434,18.9,51.883,29.425-13.688,18.126-15.581,29.352,26.657,17.218,29.988,28.268-1.926,28.147,2.837,32.471,24.854-4.108,34.515-10.056-2.052-5.309,7.755-15.942S1123.2-5.651,1123.473-17.1s-18.163-13.093-28.286-15.325-11.372,3.158-11.637,6.736c-.159,2.134,5.974,6.227,8.148,1.269s-10.44-16.424-20.611-21.573-20.3,7.377-25.6-7.708a22.137,22.137,0,0,0-12.1-9.586s-17.28-7.728-15.376-18.688-18.823,7.655-22.716-2.148-3.663-22.284,10.255-25.665,22.128,14.546,26.281,5.693c2.068-4.409-.522-11.662.715-16.668,1.1-4.476,6.054-6.7,12.938-10.849,0,0,18.41-10.066,20.708-16.148s-8.9-12.149-14.8-13.864-12.635,14.638,14.238,5.063c0,0,22.2-10.144,22.2-17.13S1067.1-188.1,1067.1-188.1s-17.423-6.724-18.671-1.15,5.409,9.353,2.558,15.557-8.02,15.505-16.916,6.842-17.683-3-22.818-7.98,3.376-12.084-1.141-16.988-17.627-1.116-24.923,5.651c-4.049,3.756-12.7,10.827-18.764,16.61-4.471,4.266-6.384,5.919-7.876,4.984s-5.891-3.865,18.777-24.675,46.9-35.327,87.866-38.362,20.009,15.738,15.838,19.433,1.81,1.236,9.2,5.986,16.45,13.3,20.355,13.015c5.379-.395-2.277-7.7,1.178-13.015s8.289-1.633,11.236-6.188-3.2-6.131-.676-9.421,16.639-4.446,28.789,6.594,14.182,29.59,19.808,37.565,3.71-1.821,2.7-5.666-6.746-7.353-6.746-9.714,3.98-4.25,6.746.27,10.186,29.411,6.206,33.459-13.9-3.035-17.809.54-4.632,8.956,2.159,13.761,26.916-23.273,33.189-18.349,13.087,21.587,9.714,27.793-5.936.54-23.2-2.968c0,0-8.095-4.047-18.349,14.571,0,0-26.154,32.805-32.38,28.6s-.334-16.119,5.127-8.365,11.291,17.974,20.507,22.936,11.2-4.3,16.358-3.09-.462,7.235,4.255,7.944S1189.11-78.3,1194-77.024s9.645,1.419,4.964,10.213c0,0-7.837,6.915-8.794,12.625s8.141,6.393,8.794,18.238-15.994,3.2-10.961,26.218,99.347-165.142-83.4-224.794c0,0-95.9-6.972-139.514,41.227s-52.1,87.4-34.932,151.569,80.835,118.2,170.125,99.87c0,0-14.044,62.156-72.288,36.022S915.148,127.012,920.694,208.591s92.681,115.2,92.681,115.2,90.68,30.715,64.353,105.306L1063.811,418.6s1.207-4.863-1.077-6.495-8.06-.032-8.06-.032,1.369-3.128.414-3.717-1.615,2.153-3.526.269a15.375,15.375,0,0,1-4.533-8c-1.9-8.563-1.25-17.024-3.773-25.16s-14.485-10.75-21.951-10.036c-10.559,1.01-17.113,7.933-21.211,12.333-3.534,3.794-1.9,7.4,1.555,7.289,2.344-.063,9.9-7.289,9.9-7.289s14.7-11.507,25.494-.531a28.4,28.4,0,0,1,4.781,25.14c-7.488-.3-9.523-1.4-9.738-2.478-.224-1.133,1.645-1.755,2.656-4.426.934-2.47.969-6.256-1.062-7.436-1.365-.793-3.215-.149-4.249.531a5.62,5.62,0,0,0-2.3,5.488,16.167,16.167,0,0,0-13.632-4.957l.531-9.206s-3.9-2.833-10.091,6.2c0,0-2.125,10.623,4.072,12.57,0,0-1.151,5.843.354,9.207s2.965,1.549,5.665,4.249c1.115,1.115.181,1.459,1.181,2.989,1.013,1.554,3.972,4.184,6.095,4.486,2.194.311,6.3-1.662,8.127-.98,4.252,1.586-1.283,7.212,4.249,5.456s6.4-6.594,10.954-8.962,9.937-2.1,7.281-.511c0,0-9.029,3.718-18.235,36.294,0,0-2.972,10.682-3.542,8.844s.209-7.414,1.261-16.195,8.2-11.567,2.945-18.928c0,0-5.468-1.262-.631,9.043,0,0-8.271,21.122-11.952,20.806s-1.719-15.442-2.77-22.067-3.208-.211-1.893-3.155,9.231-3.8,6.812-8.484c-.96-1.858-7.1-1.375-9.882-3.606-3.634-2.923-4.428-8.111-7.439-6.575-4.993,2.547-2.652,20.37-2.652,20.37s-16.66,8.571-.55,6.794a28.369,28.369,0,0,0,11.822-4.476c7.354-4.594-14.031-.612-18.889,2.309-2.05,1.233.613,4.781,1.638,8.525,1.211,4.436,7.55,32.808,7.55,32.808s1.623,5.164,13.426,5.017c0,0,5.214-13.493,4.976-23.5,0,0-2.382,4.05-5.24,31.442,0,0-5,48.354,1.906,54.308,0,0,7.682,9.541,10.242-8.323s-9.528-30.026,0-63.135l6.908-28.107s-.247,22.667-2.144,37.312-3.849,9.872-5.444,18.794a26.468,26.468,0,0,0,1.633,15.353l3.811,27.868s3.811,15.721,42.875,6.432c0,0-8.575-85.512-22.39-101.71,0,0,15.72,63.122,22.628,83.607l4.049,24.772s2.263,8.813,4.288,9.051,2.394-10.084,3.811-8.1,3.584,7.267,1.856,16.041c0,0-6.166,1.6-7.326-5.03s9.115,8.12,9.115,8.12l53.159,67.441,2.949,7.128s55.24,72.843,62.227,78.071,6.362-1.563,9.2,0-4.792,5.972,1.9,6.411,8.815-3.214,8.163-6.411a9.533,9.533,0,0,0-9.39-7.037l21.394-16.7s3.322,10.769,8.4,12.3c3.255.98,7.947-3.8,7.16-6.977s-7.8-10.01-10.309-5.743,16.467,7.665,6.282-7.689-47.021-53.725-47.021-53.725,14.089-10.958,36.788,18.785c0,0,16.176,23.221,8.61,28.961l-55.574-65.488s-8.317-10.569-19.829-8.349-26.219,17.23-26.219,17.23a1.33,1.33,0,0,0-.337,1.9l5.944,8-3.391,3.13L1097.986,575.3a55.455,55.455,0,0,0-1.043-20.09s0-37.31-2.088-44.615a180.267,180.267,0,0,0-3.391-18c-1.891-6.979-2.414.2-4.175-9.914s-2.87-30.527-2.87-30.527,2.934-9.119-10.633-26.078c0,0,13.763,8.634,13.763,21.464l1.409,31.209,5.48,72.207s-.323,16.117-16.763,2.256c0,0-25.719,5.005-37.06.561-5.012-1.965-5.7-13.487-8.538-10.544s-6.811,20.366-8.154,28.953c-1.545,9.879-1.79,16.235-2.538,27.733-.5,7.755,1.678,11.783-2.995,22.242s-3.171,11.269-1.829,19.858-4.726,25.063-6.579,37.554-7.052,24.361-8.181,28.31,9.416-3.482-2.457,6.186-39.621,1.885-34.885,11.438,52.589,13.921,56.449,12.557,8.511-9.555,3.581-15.614-23.588-8.2-23.145-7.507c1.34,2.244,15.156,14.641,23.611,3.788,9.935-12.753,10.552-34.3,15.974-55.916s1.544-14.811,5.573-30.042a278.8,278.8,0,0,1,10.544-30.882s12.661-25.833,12.085-24.171-13.867,15.748-14.39,30.817c-.314,9.041,6.452,19.539,12.407,30.327s5.814,3.809,11.415,12.823,4.257,6.785,10.989,23.234,10.026,36.245,14.98,41.022c9.713,9.367,23.331-6.94,24.188-4.133,1.94,6.353-13.558,1.008-25.231,5.065s-9.205,7.542-21.252,9.554S1064.622,738.5,1076,738.5s50.352-2.842,55.832-13.479c0,0,1.934-9.026-5.48-23.21,0,0-12.652-38.6-20.308-57.056s-10.315-16.762-10.315-16.762-12.572-35.136-14.828-57.378l2.571-6.214-3.45-7.046,3.883,16.757a264.516,264.516,0,0,0,14.083,62.291c11.659,31.807,22.356,42.143,32.553,64.938s75.878,63.074,118.812,167.973-16.344,281.547-53.213,337.9-15.6,14.619-83.15-173.634c0,0-69.193,8.749,5.965,75.954,0,0-96.234,14.713-119.3,34.994,0,0-10.13,17.723,4.374,13.918,0,0,9.906-.842-10.333-17.379-11.5-9.393-70.646-44.249-69.892-48.682,4.468-26.246,50.8-46.752,88.554-56.421s55.816-12.477,87.905-13.121c0,0,13.918.4,4.772-5.567,0,0-8.351-4.772-1.988,11.93,0,0,76.949,204.893,79.361,324.73s-69.712,154.617-69.712,154.617" fill="none" stroke="#00ffc2" stroke-miterlimit="10" stroke-width="1.5"/>
    <path id="Path_4019" data-name="Path 4019" d="M1071.294,429" fill="none" stroke="#b90000" stroke-miterlimit="10" stroke-width="1"/>
  </g>
</svg>
