<?xml version="1.0" encoding="UTF-8" standalone="no"?>
<svg
   xmlns:dc="http://purl.org/dc/elements/1.1/"
   xmlns:cc="http://creativecommons.org/ns#"
   xmlns:rdf="http://www.w3.org/1999/02/22-rdf-syntax-ns#"
   xmlns:svg="http://www.w3.org/2000/svg"
   xmlns="http://www.w3.org/2000/svg"
   xmlns:sodipodi="http://sodipodi.sourceforge.net/DTD/sodipodi-0.dtd"
   xmlns:inkscape="http://www.inkscape.org/namespaces/inkscape"
   width="1149.995"
   height="2953.513"
   viewBox="0 0 1149.995 2953.513"
   version="1.1"
   id="svg912"
   sodipodi:docname="Path_graphic.svg"
   inkscape:version="1.0.1 (c497b03c, 2020-09-10)">
  <metadata
     id="metadata918">
    <rdf:RDF>
      <cc:Work
         rdf:about="">
        <dc:format>image/svg+xml</dc:format>
        <dc:type
           rdf:resource="http://purl.org/dc/dcmitype/StillImage" />
      </cc:Work>
    </rdf:RDF>
  </metadata>
  <defs
     id="defs916" />
  <sodipodi:namedview
     pagecolor="#ffffff"
     bordercolor="#666666"
     borderopacity="1"
     objecttolerance="10"
     gridtolerance="10"
     guidetolerance="10"
     inkscape:pageopacity="0"
     inkscape:pageshadow="2"
     inkscape:window-width="1920"
     inkscape:window-height="1035"
     id="namedview914"
     showgrid="false"
     inkscape:zoom="0.2942259"
     inkscape:cx="574.9975"
     inkscape:cy="1476.7565"
     inkscape:window-x="0"
     inkscape:window-y="23"
     inkscape:window-maximized="1"
     inkscape:current-layer="svg912" />
  <path
     id="Path_673"
     data-name="Path 673"
     d="m 755.857,3132.406 c 0,0 11.836,-408.041 -28.633,-677.913 -40.469,-269.872 -108.552,-409.978 -155.92,-569.414 -17.597,-59.229 -29.747,-93.016 -32.155,-97.788 -14.889,-31.884 13.111,-20.699 14.688,-11.073 0.601,8.171 -161.797,5.18 -284.321,55.845 -8.505,3.594 -16.513,7.39 -24.063,11.47 -129.2,69.276 -99.92,89.019 -99.92,89.019 0,0 41.324,29.233 73.562,51.923 32.238,22.69 85.281,59.011 94.01,64.553 12.788,7.994 14.321,11.576 15.476,19.094 1.155,7.518 -4.931,11.552 -10.858,10.977 -5.927,-0.575 -15.408,-3.585 -12.848,-13.275 2.362,-8.96 4.434,-20.023 54.586,-39.96 50.152,-19.937 81.547,-26.819 146.022,-39.8 64.475,-12.981 70.933,-13.851 70.933,-13.851 0,0 -42.323,-25.727 -69.158,-69.378 -26.835,-43.651 -2.233,-74.031 15.179,-88.307 17.412,-14.276 41.261,-10.393 41.261,-10.393 0,0 24.535,107.109 60.8,206.809 28.074,77.184 62.481,149.703 102.729,165.715 92.1,36.641 152.433,-102.012 172.2,-226.837 16.98,-107.224 29.968,-210.063 -4.986,-269.057 -5.914,-9.988 -13.738,-21.845 -23.8,-23.677 l -70.549,-19.422 c -19.962,-14.517 41.7,-18.85 41.7,-18.85 l 21.136,-12 5.142,-18.28 9.352,-26.245 8.348,-81.749 c 4.51172,-14.1567 7.51341,-28.7509 8.955,-43.539 2.577,-26.941 -1.495,-40.995 3.705,-67.626 1.91567,-9.8025 4.70583,-19.4136 8.337,-28.718 -2.142,-0.204 -13.586,-1.503 -20.379,-11.116 -2.05782,-2.9389 -3.46606,-6.2824 -4.131,-9.808 l 8.138,-98.824 5.232,-27.9 c 4.68,-17.493 11.828,-29.063 17.38,-36.318 9.647,-12.605 22.809,-23.077 26.057,-39.871 0.65624,-3.4145 0.76225,-6.912 0.314,-10.36 -1.06593,-7.7719 -4.49875,-15.0272 -9.832,-20.78 -1.538,-6.8987 -3.07667,-13.7987 -4.616,-20.7 -1.021,-1.912 -4.381,-16.107 -19.515,-19.761 -13.844,-2.718 -34.319,2.764 -38.96,17.282 -0.364,1.426 -0.261,3.606 0.788,3.651 7.523,1.039 8.136,-4.655 12.6,-7.071 0.93581,0.5901 1.70925,1.4048 2.25,2.37 1.834,3.354 0.409,8.424 -3.549,12.69 l 12.75,-0.456 10.019,8.653 c 5.01,-13.661 10.019,-11.384 10.019,-11.384 11.385,9.563 -1.821,20.948 -1.821,20.948 4.553,9.109 18.215,5.009 18.215,5.009 12.752,-57.837 -22.822,-59.4 -22.822,-59.4 -37.892,-2.64 -48.092,25.31 -48.092,25.31 0,0 -1.305,3.724 0,6.11 1.305,2.386 5.995,1.42 5.995,1.42 -2.397,4.342 -0.231,9.201 1.963,14.633 2.194,5.432 4.529,4.733 6.794,7.1 -0.206,4.736 -0.718,11.702 -0.618,14.205 0.1,2.503 4.941,3.087 7.411,4.631 l 3.831,7.391 4.1,-0.455 5.009,3.643 c 0,0 1.654,6.021 -2.276,4.92 -3.93,-1.101 -8.763,-4.954 -13.442,-9.322 -3.161,-2.952 -4.636,-8.024 -7.338,-5.245 -2.702,2.779 -3.52,8.488 -3.469,16.361 0.0266,4.0067 0.36905,8.0051 1.024,11.958 -22.314,15.028 -9.564,16.394 -9.564,16.394 25.958,6.375 42.352,-33.7 42.352,-33.7 l 10.019,0.455 c 9.82,13.521 -1.821,42.352 -1.821,42.352 l 0.911,29.6 16.849,-47.361 c 3.192,-13.206 24.392,-36.06 24.392,-36.06 -4.1,-3.643 -11.9,1.457 -11.9,1.457 l -19.179,13.11 c -7.741,2.279 -0.97,14.079 -0.97,14.079 -0.456,19.583 -25.135,43.391 -25.135,43.391 -5.92,-1.824 -2.732,-37.8 -2.732,-37.8 -35.521,-5.461 -36.887,8.2 -36.887,8.2 l 14.573,67.855 c 0.91,10.474 21.859,7.286 21.859,7.286 -4.554,19.581 -1.822,91.534 -1.822,91.534 1.366,16.394 15.029,15.939 15.029,15.939 11.384,1.822 5.009,-38.708 5.009,-38.708 l -7.286,-25.5 0.911,-26.868 7.741,-36.887 11.84,-40.076 -2.277,20.949 -2.3,39.688 -8.647,33.04 c 0.004,5.5093 0.009,11.0193 0.014,16.53 l 6.375,25.5 -1.821,28.234 c 1.821,37.798 75.14,16.85 75.14,16.85 l 8.2,16.849 -0.455,-10.019 -3.644,-35.976 -40.073,-130.242 c -5.465,-22.77 0.455,-15.028 0.455,-15.028 l 8.2,25.047 17.3,52.826 5.92,36.887 2.391,55.68 c -46.302,8.238 -62.872,3.088 -68.724,-4.141 -1.026,-1.268 -4.076,-5.51 -7.176,-4.968 -3.55,0.629 -5.228,7.217 -8,21.529 -1.478,7.629 -3.344,17.85 -5.244,30.084 -1.30067,22.37 -2.60067,44.7403 -3.9,67.111 l -6.316,12.1 c -3.98236,10.5995 -4.15312,22.2543 -0.483,32.966 l -3.321,22.3 -8.676,37.892 -0.337,18.717 c -7.9439,6.2393 -12.26986,16.0169 -11.544,26.092 l -1.675,1.107 c -2.086,2.654 -2.542,4.81 -2.442,6.454 0.513,8.363 16.28,15.828 39.313,18.978 1.69,2.655 6.423,10.755 3.19,16.6 -0.57843,0.8186 -1.21331,1.5958 -1.9,2.326 -5.009,5.275 -13.736,6.033 -52.283,0.509 0,0 -15.469,-0.891 -35.524,-8.308 -5.481,-2.027 -11.698,-5.994 -11.931,-10.053 -0.196,-3.387 4.025,-6.082 4.236,-6.213 3.877,-2.409 7.324,-0.919 13.558,-0.566 9.396,0.528 17.099,-1.972 22.315,-3.672 7.673,-2.494 7.827,-4.115 12.994,-4.8 6.056,-0.803 10.683,0.78 17.231,3.107 25.173,8.944 26.384,10.143 29.094,9.322 7.602,-2.305 8.282,-14.828 12.71,-38.7 7.166,-38.634 11.025,-36.244 18.643,-80.786 2.44,-14.267 4.05,-26.243 5.084,-34.743 3.53,-9.937 6.822,-18.101 9.322,-24.01 8.414,-19.914 15.497,-36.693 22.314,-45.76 2.913,-3.873 4.362,-8.684 7.062,-12.711 0.844,-1.261 2.426,-3.54 1.695,-5.649 -0.55755,-1.4702 -1.84338,-2.5417 -3.39,-2.825 -1.411,-0.129 -5.187,0.824 -12.711,22.033 -3.88696,10.9856 -6.97271,22.2384 -9.233,33.67 l 18.658,45.492 L 982,1503 l 20.192,38.735 12.381,31.345 6.823,22.231 12.212,24.559 -54.736,23.189 c -8.83,6.09 -3.045,10.353 -3.045,10.353 6.126,0.481 12.635,0.786 19.49,0.838 9.5522,0.072 19.1017,-0.3511 28.61,-1.269 18.7372,-0.3313 37.0476,-5.6494 53.047,-15.407 2.003,-7.3831 0.7618,-15.27 -3.412,-21.681 -13.092,-1.2472 -26.3012,0.1373 -38.85,4.072 4.8027,2.6411 10.2518,3.8769 15.724,3.566 4.0412,-0.2539 7.9835,-1.3565 11.57,-3.236 l 10.345,-5.283 c -0.4367,-8.095 -2.5742,-16.0072 -6.273,-23.221 l -34.219,-92.774 -14.618,-23.448 -7.319,-20.034 -17.307,-78.19 c 2.4952,-4.2275 4.04793,-8.944 4.552,-13.827 2.43533,3.0047 4.871,6.007 7.307,9.007 -3.0322,1.6524 -4.4578,5.23 -3.393,8.515 1.344,3.538 6.049,5.469 10.077,3.413 l 95.189,124.858 4.624,8.048 c 78.474,99.645 99.519,129.403 104.374,126.31 0.71,-0.453 7.974,-2.055 9.643,-1.063 1.258,0.746 0.346,2.032 1.446,4.807 1.5514,3.5567 5.0528,5.8653 8.933,5.89 5.641,-0.302 9.931,-7.508 8.98,-12.493 -1.115,-5.841 -8.812,-5.4 -9.89,-10.541 -0.986,-4.698 8.019,-10.68 26.027,-22.644 1.133,-0.752 3.7,-2.411 5.6,-1.5 1.594,0.765 1.357,2.685 2.95,5.9 1.2788,2.8044 3.3241,5.1904 5.9,6.883 0.946,0.565 5.118,3.053 9.176,1.311 4.243,-1.819 6.377,-7.405 5.243,-11.143 -0.921,-3.035 -3.513,-3.247 -4.588,-7.209 -0.504,-1.862 0.044,-1.904 -0.327,-5.572 -0.367,-3.634 -0.532,-5.711 -1.639,-7.865 -1.94,-3.773 -4.806,-4.128 -4.579,-5.955 0.265,-2.134 4.218,-2.005 6.128,-5.161 1.388,-2.294 0.886,-4.985 0.322,-7.418 -1.4314,-6.4998 -3.5984,-12.8155 -6.459,-18.825 -5.238,-10.094 -7.853,-15.141 -12.453,-21.3 -5.1328,-6.9115 -11.0751,-13.1832 -17.7,-18.681 -7.864,-6.455 -14.273,-11.715 -23.923,-13.436 -6.813,-1.216 -6.922,0.817 -11.334,-0.843 -6.736,-2.532 -6.618,-7.88 -19.426,-21.423 -3.1364,-3.2309 -6.528,-6.2039 -10.142,-8.89 -4.635,-3.671 -6.52,-4.664 -7.9,-5.289 -0.808,-0.366 -3.377,-1.48 -10.32,-2.58 -5.95,-0.942 -8.925,-1.412 -11.67,-1.173 -6.755,0.589 -11.412,4.821 -15.886,8.961 -8.407,7.78 -16.36,16.136 -25.7,22.767 3.121,4.111 6.852,8.964 8.543,13.864 -3.138,1.487 -4.762,0.107 -6.862,-2.183 -55.892,-60.831 -57.248,-76.582 -74.367,-96.269 -5.6997,-6.5443 -11.752,-12.7729 -18.13,-18.658 0.4427,-21.9705 -0.2917,-43.949 -2.2,-65.841 -0.214,-2.311 -1.36,-12.52 -3.653,-32.939 0,0 -0.564,-5.027 -3.2,-24.091 -0.491,-3.568 -1.031,-7.403 -2.2,-12.482 -1.212,-5.259 -2.048,-7.29 -3.427,-12.238 -1.6441,-5.9595 -2.9519,-12.0067 -3.917,-18.113 -1.1269,-7.134 -1.8614,-14.3245 -2.2,-21.539 -1.157,-17.233 -1.736,-25.849 -1.5,-31.255 0.179,-4.13 0.495,-7.457 -1.011,-11.749 -1.695,-4.832 -4.592,-7.728 -9.461,-12.489 -6.878,-6.724 -10.317,-10.083 -15.946,-13.083 -3.417,-1.819 -7.381,-3.39 -8.573,-7.178 -0.34091,-1.6417 -0.54163,-3.3093 -0.6,-4.985 -0.502,-6.084 -0.054,-6.79 -0.826,-7.49 -2.399,-2.188 -8.771,2.712 -11.138,0.312 -1.15,-1.168 -1.151,-3.86 -1.9,-3.835 -0.13407,0.017 -0.25563,0.087 -0.337,0.195 -0.98,1.141 -4.336,1.23 -5.212,1.141 -1.438,-0.147 -2.951,-1.55 -6.574,-10.536 -2.579,-6.395 -3.868,-9.594 -4.36,-12.972 -0.492,-3.378 -0.102,-4.202 -0.557,-11.278 -0.295,-4.581 -0.52,-6.745 -0.743,-8.545 -0.17506,-2.0168 -0.47565,-4.0206 -0.9,-6 -8.35,-37.3 -77.105,-93.447 -88.55,-100.468 -55.487,-34.043 -107.51,-42.643 -137.043,-47.232 -28.28325,-4.20102 -56.8945,-5.7764 -85.468,-4.706 -54.277,1.883 -63.625,15.551 -114.325,17.942 -51.048,2.408 -88.164,0.41 -115.048,-4.275 -27.988,-4.877 -53.241,-20.382 -77.513,-35.146 -20.951,-12.745 -41.425,-35.861 -67.017,-69.819 -18.747,-24.873 -23.352,-36.086 -33.175,-62.673 -8.5,-23.01 -10.976,-42.469 -12.592,-55.81 -2.60686,-21.79681 -2.73166,-43.81905 -0.372,-65.644 2.8498,-26.44565 9.27509,-52.38229 19.1,-77.1 3.869,-0.818 6.192,-0.029 7.505,0.682 8.289,4.487 4.478,21.062 8.189,52.539 1.912,16.223 3.867,19.817 6.141,22.517 7.818,9.271 17.439,5.571 25.928,13.646 10.309,9.806 2.068,20.919 9.553,35.481 5.763,11.211 14.676,8.72 57.226,28.346 35.426,16.341 39.039,23.534 39.81,28.376 2.759,17.362 -30.32,31.446 -26.152,52.3 1.318,6.604 5.776,10.895 12.7,17.558 16.341,15.726 27.662,10.826 35.491,22.789 3.502,5.35 3.957,15.023 4.857,34.37 0.929,19.867 -0.96,22.021 1.868,25.4 11.433,13.665 61.907,1.883 72.1,-23.909 3.131,-7.91 0.331,-11.745 5.231,-19.427 7.176,-11.257 16.99,-9.004 31.754,-20.921 6.341,-5.117 18.867,-15.186 17.558,-26.524 -1.138,-9.866 -12.181,-15.796 -18.769,-19.333 -20.363,-10.935 -45.652,-8.692 -49.063,0 -0.66,1.682 -5.721,9.856 -2.393,14.709 3.328,4.853 14.415,6.411 12.452,-2.889 -1.963,-9.3 -10.36,-23.8 -20.306,-34.3 -7.515,-7.938 -9.884,-9.124 -11.374,-9.75 -4.797,-2.014 -7.691,-1.236 -23.561,-1.083 -12.475,0.119 -15.164,-0.318 -17.875,-2.167 -4.236,-2.889 -3.375,-5.711 -7.311,-11.645 -5.084,-7.664 -12.779,-11.789 -28.166,-20.041 -9.688,-5.195 -10.752,-4.804 -13,-7.583 -7.529,-9.299 -0.81,-20.095 -6.229,-25.186 -8.079,-7.592 -28.731,11.033 -37.644,4.333 -9.1,-6.838 -4.2,-38.751 11.1,-45.226 17.219,-7.287 42.176,19.945 50.1,12.457 1.333,-1.261 1.611,-5.353 2.166,-13.541 0.914,-13.482 -0.648,-15.893 0.541,-20.582 1.933,-7.611 8.453,-10.722 24.645,-20.311 22.936,-13.586 34.419,-20.486 34.936,-25.728 1.305,-13.23 -27.082,-30.296 -33.582,-25.186 -1.963,1.544 -1.958,5.137 -1.129,9.212 4.63539,2.97281 9.98047,4.65404 15.483,4.87 7.515,0.187 15.403,-4.297 30.873,-13.271 9.467,-5.492 11.558,-7.311 12.458,-8.124 3.657,-3.303 13.804,-12.447 12.457,-20.854 -1.302,-8.125 -12.759,-11.905 -31.933,-18.225 -18.09,-5.964 -33.36,-10.997 -38.177,-4.98 -4.746,5.925 6.211,15.653 1.661,31.2 -0.206,0.703 -4.235,13.906 -12.781,15.437 -5.931,1.061 -10.338,-4.159 -16.549,-8.41 -7.386,-5.056 -19.182,-10.017 -38.392,-9.185 -1.16731,-5.93826 -0.9965,-12.06204 0.5,-17.926 1.452,-5.514 3.224,-7.175 2.324,-9.959 -2.011,-6.215 -14.244,-8.446 -22.906,-7.469 -6.522,0.735 -11.419,3.335 -15.768,5.643 -4.51927,2.45492 -8.75045,5.40652 -12.615,8.8 -7.469,6.257 -12.826,11.726 -23.237,22.408 -12.706,13.037 -21.718,15.855 -21.718,15.855 0,0 -3.305,-0.543 2.629,-8.884 5.934,-8.341 13.777,-14.733 24.068,-24.233 16.804,-15.507 36.993,-34.137 68.053,-49.628 20.334,-10.143 36.825,-14.698 52.119,-18.923 15.71636,-4.32853 31.85496,-6.94375 48.134,-7.8 29.067,-1.538 32.78,4.006 33.694,5.975 2.406,5.183 -1.993,12.727 -3.523,15.35 -5.667,9.718 -13.736,11.431 -13.075,15.024 0.666,3.623 8.905,2.105 19.586,7.469 9.187,4.614 8.84,8.624 21.412,17.263 6.805,4.676 15.611,10.727 19.087,8.132 4.893,-3.647 -5.625,-20.758 1,-26.722 1.942,-1.749 3.316,-0.674 12.282,-4.316 4.65,-1.89 6.991,-2.868 7.8,-4.482 2.462,-4.922 -5.542,-10.263 -3.652,-15.271 1.911,-5.066 12.974,-7.196 21.411,-4.149 6.568,2.372 10.279,7.423 12.449,10.457 16.793,23.485 25.85,42.058 38.562,59.358 4.285,5.825 7.36,11.721 11,13.585 3.64,1.864 3.464,-4.668 3.564,-6.128 0.596,-8.482 -13.867,-14.915 -12.252,-19.532 1.04603,-2.58291 3.97162,-3.848 6.57,-2.841 4.04,1.331 6.579,3.908 9.589,8.168 3.451,4.886 4.076,11.662 5.327,25.215 0.427,4.634 0.462,9.069 0.532,17.934 0.049,6.158 -0.086,6.748 -0.532,7.458 -4.549,7.232 -23.402,-1.828 -29.121,4.972 -2.046,2.432 -2.216,12.652 2.309,18.467 4.525,5.815 9.432,6.003 15.8,4.795 17.492,-3.321 21.539,-38.86 33.205,-38.355 2.956,0.123 5.344,2.923 10.121,8.523 3.241,3.798 5.835,8.048 10.476,19.887 5.479,13.977 8.178,21.014 6.214,23.439 -3.05,3.768 -11.636,1.925 -25.569,-1.066 -11.875,-2.551 -13.98,-4.539 -19.355,-3.551 -5.177,0.951 -9.472,3.947 -17.4,13.14 -11.307,13.111 -12.352,18.36 -23.286,33.245 -6.433,8.757 -13.305,16.787 -23.552,23.679 -11.573,7.78 -15.776,6.263 -17.3,5.431 -3.789,-2.068 -5.812,-5.872 -4.931,-9.86 0.881,-3.988 4.678,-5.786 8.452,-6.1 9.61,-0.801 11.803,22.286 32.161,34.978 4.295,2.678 8.568,5.265 14.32,5.165 9.94,-0.176 14.936,-8.219 20.188,-5.869 4.843,2.165 2.265,9.743 7.043,12.676 7.768,4.771 21.014,-11.309 29.814,-6.573 4.244,2.283 6.025,8.636 5.634,13.146 -0.816,9.431 -11.172,11.315 -14.555,24.415 -0.94511,3.0359 -1.18453,6.24752 -0.7,9.39 1.769,9.863 11.063,12.882 15.025,18.546 1.864,2.665 7.567,13.093 -15.82,50.377 -16.257,25.917 -32.148,51.25 -65.395,71.34 -22.456,13.57 -41.843,18.108 -59.223,22.177 -40.823,9.559 -72.585,6.651 -112.723,2.975 -29.155,-2.669 -51.134,0.553 -79.683,-10.483 -9.989,-3.862 -38.284,-16.408 -64.712,-43.044 -56.567,-57.009 -68.926,-134.347 -70.567,-152.356 -1.023,-11.229 -11.513,-134.58 80.068,-213.655 60.183,-51.965 144.384,-72.921 223.011,-61.079 26.688,4.022 53.184,11.59 80.137,10.2 55.566,-2.868 103.553,-44.607 127.804,-94.689 24.251,-50.082 28.526,-107.379 28.151,-163.02"
     transform="translate(-141.177,-178.942)"
     fill="none"
     stroke="#00ffc2"
     stroke-miterlimit="10"
     stroke-width="3"
     sodipodi:nodetypes="csccccccscsscsscssccsscccccccccccccccccccccccccccccccccscscsccccscscccccccccccccccccccccccccccccccccccccccccccccccccccccccccscsccsccssccccccccccccccccscccccccccccccccccccccccccccccscccscccccccccsccsccccccccccccccccccccccccsccccccccccccccccccccccccccccccccsscccscccccccsccsccccsccccccccccccccsccccscccccccccsccsccccccccscccscccscccsccccccccccccccccccccsc" />
</svg>
