<svg xmlns="http://www.w3.org/2000/svg" xmlns:xlink="http://www.w3.org/1999/xlink" width="1418.76" height="441.806" viewBox="0 0 1418.76 441.806">
  <defs>
    <linearGradient id="linear-gradient" x1="-0.337" y1="4.88" x2="-0.829" y2="2.995" gradientUnits="objectBoundingBox">
      <stop offset="0.011" stop-color="#00ffc2"/>
      <stop offset="0.097" stop-color="#04f6c3"/>
      <stop offset="0.233" stop-color="#11dfc9"/>
      <stop offset="0.401" stop-color="#25bad1"/>
      <stop offset="0.597" stop-color="#4286de"/>
      <stop offset="0.811" stop-color="#6645ed"/>
      <stop offset="1" stop-color="#8906fc"/>
    </linearGradient>
  </defs>
  <path id="Path_154" data-name="Path 154" d="M1423.881,4637.427c-59.111,10.269-118.227,46.04-177.344,99.354-59.116,53.483-118.234,112.634-177.344,119.08-29.561,5.482-59.117,3.457-88.678-23.036-29.555-23.651-59.11-68.964-88.671-105.909-29.555-37.57-59.111-63.239-88.672-67.843-29.555-3.832-59.116,1.292-88.671,16.751-59.116,28.181-118.234,98.892-177.344,127.264-29.561,14.666-59.117,21.353-88.678,17.624-29.555-3.677-59.11-23.4-88.671-52.044-29.555-28.431-59.116-63.4-88.672-85.269-29.555-23.02-59.116-30.228-88.671-31.667-59.116-7.04-118.234-12.846-177.344-14.306,59.11-1.461,118.228-7.269,177.344-14.309,29.555-1.437,59.116-8.646,88.671-31.666,29.556-21.86,59.117-56.838,88.672-85.269,29.561-28.649,59.116-48.36,88.671-52.044,29.561-3.722,59.117,2.958,88.678,17.624,59.11,28.372,118.228,99.083,177.344,127.264,29.555,15.459,59.116,20.583,88.671,16.751,29.561-4.6,59.117-30.273,88.672-67.841,29.561-36.946,59.116-82.259,88.671-105.911,29.561-26.492,59.117-28.518,88.678-23.034,59.11,6.444,118.228,65.6,177.344,119.079C1305.654,4591.387,1364.77,4627.156,1423.881,4637.427Z" transform="translate(-5.121 -4416.522)" fill="url(#linear-gradient)"/>
</svg>
