<svg xmlns="http://www.w3.org/2000/svg" width="1418.763" height="389.348" viewBox="0 0 1418.763 389.348">
  <g id="Group_41" data-name="Group 41" transform="translate(0.001 -0.004)" style="isolation: isolate">
    <path id="Path_153" data-name="Path 153" d="M1423.881,4637.731c-59.111,2.077-118.227,9.234-177.344,18.138-59.116,11.913-118.234,13.573-177.344,43.7C950.96,4760.758,832.733,4890.382,714.5,4803.1c-29.555-23.763-59.116-54.621-88.672-75.05-29.561-21.384-59.116-23.336-88.672-28.7-59.117-10.526-118.233-20.216-177.35-28.43-118.228-16.972-236.46-29.106-354.688-33.186,118.228-4.083,236.46-16.209,354.688-33.187,59.116-8.214,118.232-17.9,177.35-28.422,29.555-5.366,59.11-7.327,88.672-28.709,29.556-20.429,59.117-51.289,88.672-75.05,118.232-87.28,236.46,42.34,354.693,103.531,59.11,30.126,118.228,31.792,177.344,43.7C1305.654,4628.5,1364.77,4635.652,1423.881,4637.731Z" transform="translate(-5.119 -4443.055)" fill="#b123f9"/>
  </g>
</svg>
