<?xml version="1.0" encoding="UTF-8" standalone="no"?>
<svg
   xmlns:dc="http://purl.org/dc/elements/1.1/"
   xmlns:cc="http://creativecommons.org/ns#"
   xmlns:rdf="http://www.w3.org/1999/02/22-rdf-syntax-ns#"
   xmlns:svg="http://www.w3.org/2000/svg"
   xmlns="http://www.w3.org/2000/svg"
   xmlns:sodipodi="http://sodipodi.sourceforge.net/DTD/sodipodi-0.dtd"
   xmlns:inkscape="http://www.inkscape.org/namespaces/inkscape"
   width="77.75"
   height="77.75"
   viewBox="0 0 77.75 77.75"
   version="1.1"
   id="svg842"
   sodipodi:docname="Twitter_icon.svg"
   inkscape:version="1.0.1 (c497b03c, 2020-09-10)">
  <metadata
     id="metadata848">
    <rdf:RDF>
      <cc:Work
         rdf:about="">
        <dc:format>image/svg+xml</dc:format>
        <dc:type
           rdf:resource="http://purl.org/dc/dcmitype/StillImage" />
      </cc:Work>
    </rdf:RDF>
  </metadata>
  <defs
     id="defs846" />
  <sodipodi:namedview
     pagecolor="#ffffff"
     bordercolor="#666666"
     borderopacity="1"
     objecttolerance="10"
     gridtolerance="10"
     guidetolerance="10"
     inkscape:pageopacity="0"
     inkscape:pageshadow="2"
     inkscape:window-width="1920"
     inkscape:window-height="1035"
     id="namedview844"
     showgrid="false"
     inkscape:zoom="10.160772"
     inkscape:cx="38.875"
     inkscape:cy="38.875"
     inkscape:window-x="0"
     inkscape:window-y="23"
     inkscape:window-maximized="1"
     inkscape:current-layer="svg842" />
  <g
     id="Group_238"
     data-name="Group 238"
     transform="matrix(1.1744622,0,0,1.1774701,-2632.6072,-2400.6346)">
    <g
       id="Group_178"
       data-name="Group 178"
       transform="translate(0,39)">
      <circle
         id="Ellipse_169"
         data-name="Ellipse 169"
         cx="32.719002"
         cy="32.719002"
         r="32.719002"
         transform="rotate(-77.844,2392.0854,-355.36185)"
         fill="#33ccff" />
      <g
         id="Group_177"
         data-name="Group 177"
         transform="translate(2)">
        <path
           id="Path_726"
           data-name="Path 726"
           d="m 2294.515,2020.2 a 16.608,16.608 0 0 1 -4.072,1.163 c 0.656,-0.111 1.623,-1.3 2.01,-1.778 a 7.492,7.492 0 0 0 1.355,-2.469 c 0.035,-0.07 0.062,-0.159 -0.01,-0.212 a 0.232,0.232 0 0 0 -0.216,0.018 20.749,20.749 0 0 1 -4.835,1.85 0.323,0.323 0 0 1 -0.334,-0.088 3.859,3.859 0 0 0 -0.422,-0.432 8.551,8.551 0 0 0 -2.343,-1.435 8.152,8.152 0 0 0 -3.592,-0.579 8.583,8.583 0 0 0 -3.409,0.963 8.785,8.785 0 0 0 -2.75,2.246 8.441,8.441 0 0 0 -1.642,3.289 8.922,8.922 0 0 0 -0.087,3.472 c 0.026,0.194 0.01,0.22 -0.166,0.194 -6.642,-0.988 -12.147,-3.365 -16.617,-8.458 -0.194,-0.221 -0.3,-0.221 -0.458,0.017 -1.956,2.932 -1.007,7.641 1.436,9.956 0.326,0.308 0.661,0.617 1.022,0.9 a 8.472,8.472 0 0 1 -3.207,-0.9 c -0.194,-0.123 -0.291,-0.053 -0.308,0.168 a 5.093,5.093 0 0 0 0.052,0.951 8.522,8.522 0 0 0 5.252,6.793 4.968,4.968 0 0 0 1.065,0.325 9.488,9.488 0 0 1 -3.145,0.1 c -0.229,-0.044 -0.317,0.07 -0.229,0.29 1.384,3.772 4.371,4.894 6.607,5.533 0.3,0.053 0.6,0.053 0.9,0.123 -0.018,0.027 -0.036,0.027 -0.053,0.053 -0.742,1.131 -3.315,1.973 -4.513,2.392 a 16.164,16.164 0 0 1 -6.853,0.877 c -0.368,-0.054 -0.446,-0.05 -0.546,0 -0.1,0.05 -0.012,0.15 0.106,0.246 0.467,0.309 0.943,0.582 1.427,0.846 a 22.685,22.685 0 0 0 4.581,1.833 c 8.233,2.273 17.507,0.6 23.688,-5.539 4.854,-4.823 6.556,-11.475 6.556,-18.134 0,-0.261 0.308,-0.405 0.491,-0.542 a 15.956,15.956 0 0 0 3.209,-3.353 0.977,0.977 0 0 0 0.2,-0.642 v -0.035 c -0,-0.102 0.011,-0.072 -0.152,-0 z"
           fill="#ffffff" />
        <path
           id="Path_727"
           data-name="Path 727"
           d="M 2266.334,2049.485 Z"
           fill="#ffffff"
           fill-rule="evenodd" />
        <path
           id="Path_728"
           data-name="Path 728"
           d="m 2266.334,2049.485 c -0.053,0 -0.666,0 0,0 z"
           fill="#ffffff"
           fill-rule="evenodd" />
        <path
           id="Path_729"
           data-name="Path 729"
           d="m 2267.69,2049.52 c 0,-0.068 0.714,0 0,0 0,-0.035 0.088,0 0,0 z"
           fill="#ffffff"
           fill-rule="evenodd" />
        <path
           id="Path_730"
           data-name="Path 730"
           d="m 2281.945,2016.482 a 0.146,0.146 0 0 1 -0.167,0 z"
           fill="#ffffff"
           fill-rule="evenodd" />
      </g>
    </g>
  </g>
</svg>
