<svg xmlns="http://www.w3.org/2000/svg" width="77.75" height="77.75" viewBox="0 0 77.75 77.75">
  <g id="Group_238" data-name="Group 238" transform="translate(-2235.768 -2032.948)">
    <g id="Group_178" data-name="Group 178" transform="translate(0 39)">
      <circle id="Ellipse_169" data-name="Ellipse 169" cx="32.719" cy="32.719" r="32.719" transform="translate(2235.768 2057.918) rotate(-77.844)" fill="#3cf"/>
      <g id="Group_177" data-name="Group 177" transform="translate(2)">
        <path id="Path_726" data-name="Path 726" d="M2294.515,2020.2a16.608,16.608,0,0,1-4.072,1.163c.656-.111,1.623-1.3,2.01-1.778a7.492,7.492,0,0,0,1.355-2.469c.035-.07.062-.159-.008-.212a.232.232,0,0,0-.216.018,20.749,20.749,0,0,1-4.835,1.85.323.323,0,0,1-.334-.088,3.859,3.859,0,0,0-.422-.432,8.551,8.551,0,0,0-2.343-1.435,8.152,8.152,0,0,0-3.592-.579,8.583,8.583,0,0,0-3.409.963,8.785,8.785,0,0,0-2.75,2.246,8.441,8.441,0,0,0-1.642,3.289,8.922,8.922,0,0,0-.087,3.472c.026.194.009.22-.166.194-6.642-.988-12.147-3.365-16.617-8.458-.194-.221-.3-.221-.458.017-1.956,2.932-1.007,7.641,1.436,9.956.326.308.661.617,1.022.9a8.472,8.472,0,0,1-3.207-.9c-.194-.123-.291-.053-.308.168a5.093,5.093,0,0,0,.052.951,8.522,8.522,0,0,0,5.252,6.793,4.968,4.968,0,0,0,1.065.325,9.488,9.488,0,0,1-3.145.1c-.229-.044-.317.07-.229.29,1.384,3.772,4.371,4.894,6.607,5.533.3.053.6.053.9.123-.018.027-.036.027-.053.053-.742,1.131-3.315,1.973-4.513,2.392a16.164,16.164,0,0,1-6.853.877c-.368-.054-.446-.05-.546,0s-.012.15.106.246c.467.309.943.582,1.427.846a22.685,22.685,0,0,0,4.581,1.833c8.233,2.273,17.507.6,23.688-5.539,4.854-4.823,6.556-11.475,6.556-18.134,0-.261.308-.405.491-.542a15.956,15.956,0,0,0,3.209-3.353.977.977,0,0,0,.2-.642v-.035C2294.665,2020.1,2294.678,2020.13,2294.515,2020.2Z" fill="#fff"/>
        <path id="Path_727" data-name="Path 727" d="M2266.334,2049.485Z" fill="#fff" fill-rule="evenodd"/>
        <path id="Path_728" data-name="Path 728" d="M2266.334,2049.485c-.053,0-.666,0,0,0Z" fill="#fff" fill-rule="evenodd"/>
        <path id="Path_729" data-name="Path 729" d="M2267.69,2049.52c0-.068.714,0,0,0C2267.69,2049.485,2267.778,2049.52,2267.69,2049.52Z" fill="#fff" fill-rule="evenodd"/>
        <path id="Path_730" data-name="Path 730" d="M2281.945,2016.482a.146.146,0,0,1-.167,0Z" fill="#fff" fill-rule="evenodd"/>
      </g>
    </g>
  </g>
</svg>
