<svg xmlns="http://www.w3.org/2000/svg" width="58.963" height="58.963" viewBox="0 0 58.963 58.963">
  <g id="Group_185" data-name="Group 185" transform="translate(-2342.729 -1136.765)">
    <g id="Group_184" data-name="Group 184">
      <path id="Path_740" data-name="Path 740" d="M2393.057,1145.4a29.481,29.481,0,1,0,8.635,20.846A29.286,29.286,0,0,0,2393.057,1145.4Zm5.122,19.119h-12.747a61.771,61.771,0,0,0-1.313-11.448,42.566,42.566,0,0,0,8.782-2.594A25.89,25.89,0,0,1,2398.179,1164.519Zm-7.694-16.785a40.981,40.981,0,0,1-7.216,1.987,37.477,37.477,0,0,0-1.32-3.762,23.786,23.786,0,0,0-2.56-4.732A26.032,26.032,0,0,1,2390.485,1147.734Zm-28.041,16.785a57.831,57.831,0,0,1,1.271-10.9,67.334,67.334,0,0,0,16.991,0,57.755,57.755,0,0,1,1.27,10.9Zm19.532,3.455a57.764,57.764,0,0,1-1.27,10.9,67.349,67.349,0,0,0-16.991,0,57.84,57.84,0,0,1-1.271-10.9Zm-9.766-27.754c2.748,0,5.681,3.763,7.612,10.028a64.475,64.475,0,0,1-15.224,0C2366.53,1143.983,2369.463,1140.22,2372.21,1140.22Zm-7.178,1.007a23.8,23.8,0,0,0-2.56,4.732,37.417,37.417,0,0,0-1.32,3.762,40.975,40.975,0,0,1-7.216-1.987A26.029,26.029,0,0,1,2365.032,1141.227Zm-13.512,9.25a42.57,42.57,0,0,0,8.782,2.594,61.812,61.812,0,0,0-1.313,11.448h-12.747A25.882,25.882,0,0,1,2351.52,1150.477Zm-5.278,17.5h12.747a61.833,61.833,0,0,0,1.313,11.448,42.5,42.5,0,0,0-8.782,2.594A25.883,25.883,0,0,1,2346.242,1167.974Zm7.693,16.785a41.02,41.02,0,0,1,7.217-1.987,37.252,37.252,0,0,0,1.32,3.762,23.8,23.8,0,0,0,2.56,4.732A26.041,26.041,0,0,1,2353.935,1184.759Zm18.275,7.514c-2.747,0-5.68-3.763-7.612-10.028a64.319,64.319,0,0,1,15.224,0C2377.891,1188.51,2374.958,1192.273,2372.21,1192.273Zm7.179-1.007a23.786,23.786,0,0,0,2.56-4.732,37.555,37.555,0,0,0,1.32-3.762,41.02,41.02,0,0,1,7.216,1.987A26.04,26.04,0,0,1,2379.389,1191.266Zm13.512-9.25a42.491,42.491,0,0,0-8.782-2.594,61.792,61.792,0,0,0,1.313-11.448h12.747A25.89,25.89,0,0,1,2392.9,1182.016Z" fill="#00ffc2"/>
    </g>
  </g>
</svg>
